<?xml version="1.0" encoding="UTF-8"?><svg xmlns="http://www.w3.org/2000/svg" xmlns:xlink="http://www.w3.org/1999/xlink" fill-opacity="1" color-rendering="auto" color-interpolation="auto" text-rendering="auto" stroke="black" stroke-linecap="square" width="1019" stroke-miterlimit="10" shape-rendering="auto" stroke-opacity="1" fill="black" stroke-dasharray="none" font-weight="normal" stroke-width="1" height="263" font-family="'Dialog'" font-style="normal" stroke-linejoin="miter" font-size="12px" stroke-dashoffset="0" image-rendering="auto">
  <!--Generated by ySVG 2.5-->
  <defs id="genericDefs"/>
  <g>
    <defs id="defs1">
      <clipPath clipPathUnits="userSpaceOnUse" id="clipPath1">
        <path d="M0 0 L1019 0 L1019 263 L0 263 L0 0 Z"/>
      </clipPath>
      <clipPath clipPathUnits="userSpaceOnUse" id="clipPath2">
        <path d="M176 178 L1195 178 L1195 441 L176 441 L176 178 Z"/>
      </clipPath>
    </defs>
    <g fill="white" text-rendering="geometricPrecision" shape-rendering="geometricPrecision" transform="translate(-176,-178)" stroke="white">
      <rect x="176" width="1019" height="263" y="178" clip-path="url(#clipPath2)" stroke="none"/>
    </g>
    <g fill="rgb(245,245,245)" text-rendering="geometricPrecision" shape-rendering="geometricPrecision" transform="matrix(1,0,0,1,-176,-178)" stroke="rgb(245,245,245)">
      <rect x="191.65" y="193.0391" clip-path="url(#clipPath2)" width="305" rx="4" ry="4" height="232.4609" stroke="none"/>
      <rect x="191.65" y="193.0391" clip-path="url(#clipPath2)" fill="rgb(235,235,235)" width="305" height="21.4609" stroke="none"/>
    </g>
    <g font-size="15px" stroke-linecap="butt" transform="matrix(1,0,0,1,-176,-178)" text-rendering="geometricPrecision" font-family="sans-serif" shape-rendering="geometricPrecision" stroke-miterlimit="1.45">
      <text x="316.1954" xml:space="preserve" y="208.9624" clip-path="url(#clipPath2)" stroke="none">Standard Komponenten</text>
      <rect x="191.65" y="193.0391" clip-path="url(#clipPath2)" fill="none" width="305" stroke-dasharray="6,2" rx="4" ry="4" height="232.4609"/>
    </g>
    <g fill="silver" text-rendering="geometricPrecision" shape-rendering="geometricPrecision" transform="matrix(1,0,0,1,-176,-178)" stroke="silver">
      <circle r="30" clip-path="url(#clipPath2)" cx="236.65" cy="320" stroke="none"/>
    </g>
    <g text-rendering="geometricPrecision" stroke-miterlimit="1.45" shape-rendering="geometricPrecision" transform="matrix(1,0,0,1,-176,-178)" stroke-linecap="butt">
      <circle fill="none" r="30" clip-path="url(#clipPath2)" cx="236.65" cy="320"/>
      <text x="213.8072" xml:space="preserve" y="317.1699" clip-path="url(#clipPath2)" font-family="sans-serif" stroke="none">Erdgas-</text>
      <text x="225.6051" xml:space="preserve" y="331.1387" clip-path="url(#clipPath2)" font-family="sans-serif" stroke="none">Bus</text>
    </g>
    <g fill="silver" text-rendering="geometricPrecision" shape-rendering="geometricPrecision" transform="matrix(1,0,0,1,-176,-178)" stroke="silver">
      <circle r="30" clip-path="url(#clipPath2)" cx="451.65" cy="380.5" stroke="none"/>
    </g>
    <g text-rendering="geometricPrecision" stroke-miterlimit="1.45" shape-rendering="geometricPrecision" transform="matrix(1,0,0,1,-176,-178)" stroke-linecap="butt">
      <circle fill="none" r="30" clip-path="url(#clipPath2)" cx="451.65" cy="380.5"/>
      <text x="427.8727" xml:space="preserve" y="377.6699" clip-path="url(#clipPath2)" font-family="sans-serif" stroke="none">Wärme-</text>
      <text x="440.6051" xml:space="preserve" y="391.6387" clip-path="url(#clipPath2)" font-family="sans-serif" stroke="none">Bus</text>
    </g>
    <g fill="silver" text-rendering="geometricPrecision" shape-rendering="geometricPrecision" transform="matrix(1,0,0,1,-176,-178)" stroke="silver">
      <circle r="30" clip-path="url(#clipPath2)" cx="451.65" cy="259.5" stroke="none"/>
    </g>
    <g text-rendering="geometricPrecision" stroke-miterlimit="1.45" shape-rendering="geometricPrecision" transform="matrix(1,0,0,1,-176,-178)" stroke-linecap="butt">
      <circle fill="none" r="30" clip-path="url(#clipPath2)" cx="451.65" cy="259.5"/>
      <text x="431.3414" xml:space="preserve" y="256.6699" clip-path="url(#clipPath2)" font-family="sans-serif" stroke="none">Strom-</text>
      <text x="440.6051" xml:space="preserve" y="270.6387" clip-path="url(#clipPath2)" font-family="sans-serif" stroke="none">Bus</text>
    </g>
    <g fill="silver" text-rendering="geometricPrecision" shape-rendering="geometricPrecision" transform="matrix(1,0,0,1,-176,-178)" stroke="silver">
      <rect x="313.65" y="301.8" clip-path="url(#clipPath2)" width="99" rx="4" ry="4" height="36.4" stroke="none"/>
    </g>
    <g text-rendering="geometricPrecision" stroke-miterlimit="1.45" shape-rendering="geometricPrecision" transform="matrix(1,0,0,1,-176,-178)" stroke-linecap="butt">
      <rect x="313.65" y="301.8" clip-path="url(#clipPath2)" fill="none" width="99" rx="4" ry="4" height="36.4"/>
      <text x="326.1598" xml:space="preserve" y="324.1543" clip-path="url(#clipPath2)" font-family="sans-serif" stroke="none">Transformer</text>
      <path fill="none" d="M266.65 320 L305.6278 320" clip-path="url(#clipPath2)"/>
      <path d="M313.6278 320 L301.6278 315 L304.6278 320 L301.6278 325 Z" clip-path="url(#clipPath2)" stroke="none"/>
      <path fill="none" d="M389.7907 301.788 L420.2796 280.9453" clip-path="url(#clipPath2)"/>
      <path d="M426.8839 276.4305 L414.1557 279.075 L419.4541 281.5096 L419.7992 287.3304 Z" clip-path="url(#clipPath2)" stroke="none"/>
      <path fill="none" d="M389.7907 338.212 L420.2796 359.0547" clip-path="url(#clipPath2)"/>
      <path d="M426.8839 363.5695 L419.7992 352.6696 L419.4541 358.4904 L414.1557 360.925 Z" clip-path="url(#clipPath2)" stroke="none"/>
    </g>
    <g fill="rgb(245,245,245)" text-rendering="geometricPrecision" shape-rendering="geometricPrecision" transform="matrix(1,0,0,1,-176,-178)" stroke="rgb(245,245,245)">
      <rect x="533" y="193.0391" clip-path="url(#clipPath2)" width="305" rx="4" ry="4" height="232.4609" stroke="none"/>
      <rect x="533" y="193.0391" clip-path="url(#clipPath2)" fill="rgb(235,235,235)" width="305" height="21.4609" stroke="none"/>
    </g>
    <g font-size="15px" stroke-linecap="butt" transform="matrix(1,0,0,1,-176,-178)" text-rendering="geometricPrecision" font-family="sans-serif" shape-rendering="geometricPrecision" stroke-miterlimit="1.45">
      <text x="570.8633" xml:space="preserve" y="208.9624" clip-path="url(#clipPath2)" stroke="none">Zusätzliche solph Komponente (LP)</text>
      <rect x="533" y="193.0391" clip-path="url(#clipPath2)" fill="none" width="305" stroke-dasharray="6,2" rx="4" ry="4" height="232.4609"/>
    </g>
    <g fill="silver" text-rendering="geometricPrecision" shape-rendering="geometricPrecision" transform="matrix(1,0,0,1,-176,-178)" stroke="silver">
      <circle r="30" clip-path="url(#clipPath2)" cx="578" cy="320" stroke="none"/>
    </g>
    <g text-rendering="geometricPrecision" stroke-miterlimit="1.45" shape-rendering="geometricPrecision" transform="matrix(1,0,0,1,-176,-178)" stroke-linecap="butt">
      <circle fill="none" r="30" clip-path="url(#clipPath2)" cx="578" cy="320"/>
      <text x="555.1572" xml:space="preserve" y="317.1699" clip-path="url(#clipPath2)" font-family="sans-serif" stroke="none">Erdgas-</text>
      <text x="566.9551" xml:space="preserve" y="331.1387" clip-path="url(#clipPath2)" font-family="sans-serif" stroke="none">Bus</text>
    </g>
    <g fill="silver" text-rendering="geometricPrecision" shape-rendering="geometricPrecision" transform="matrix(1,0,0,1,-176,-178)" stroke="silver">
      <circle r="30" clip-path="url(#clipPath2)" cx="793" cy="380.5" stroke="none"/>
    </g>
    <g text-rendering="geometricPrecision" stroke-miterlimit="1.45" shape-rendering="geometricPrecision" transform="matrix(1,0,0,1,-176,-178)" stroke-linecap="butt">
      <circle fill="none" r="30" clip-path="url(#clipPath2)" cx="793" cy="380.5"/>
      <text x="769.2227" xml:space="preserve" y="377.6699" clip-path="url(#clipPath2)" font-family="sans-serif" stroke="none">Wärme-</text>
      <text x="781.9551" xml:space="preserve" y="391.6387" clip-path="url(#clipPath2)" font-family="sans-serif" stroke="none">Bus</text>
    </g>
    <g fill="silver" text-rendering="geometricPrecision" shape-rendering="geometricPrecision" transform="matrix(1,0,0,1,-176,-178)" stroke="silver">
      <circle r="30" clip-path="url(#clipPath2)" cx="793" cy="259.5" stroke="none"/>
    </g>
    <g text-rendering="geometricPrecision" stroke-miterlimit="1.45" shape-rendering="geometricPrecision" transform="matrix(1,0,0,1,-176,-178)" stroke-linecap="butt">
      <circle fill="none" r="30" clip-path="url(#clipPath2)" cx="793" cy="259.5"/>
      <text x="772.6914" xml:space="preserve" y="256.6699" clip-path="url(#clipPath2)" font-family="sans-serif" stroke="none">Strom-</text>
      <text x="781.9551" xml:space="preserve" y="270.6387" clip-path="url(#clipPath2)" font-family="sans-serif" stroke="none">Bus</text>
    </g>
    <g fill="rgb(255,204,153)" text-rendering="geometricPrecision" shape-rendering="geometricPrecision" transform="matrix(1,0,0,1,-176,-178)" stroke="rgb(255,204,153)">
      <rect x="655" y="301.8" clip-path="url(#clipPath2)" width="99" rx="4" ry="4" height="36.4" stroke="none"/>
    </g>
    <g text-rendering="geometricPrecision" stroke-miterlimit="1.45" shape-rendering="geometricPrecision" transform="matrix(1,0,0,1,-176,-178)" stroke-linecap="butt">
      <rect x="655" y="301.8" clip-path="url(#clipPath2)" fill="none" width="99" rx="4" ry="4" height="36.4"/>
      <text x="671.9629" xml:space="preserve" y="317.1699" clip-path="url(#clipPath2)" font-family="sans-serif" stroke="none">Extraction </text>
      <text x="667.3691" xml:space="preserve" y="331.1387" clip-path="url(#clipPath2)" font-family="sans-serif" stroke="none">Turbine CHP</text>
      <path fill="none" d="M608 320 L646.9778 320" clip-path="url(#clipPath2)"/>
      <path d="M654.9778 320 L642.9778 315 L645.9778 320 L642.9778 325 Z" clip-path="url(#clipPath2)" stroke="none"/>
      <path fill="none" d="M731.1407 301.788 L761.6296 280.9453" clip-path="url(#clipPath2)"/>
      <path d="M768.2339 276.4305 L755.5057 279.075 L760.8041 281.5096 L761.1492 287.3304 Z" clip-path="url(#clipPath2)" stroke="none"/>
      <path fill="none" d="M731.1407 338.212 L761.6296 359.0547" clip-path="url(#clipPath2)"/>
      <path d="M768.2339 363.5695 L761.1492 352.6696 L760.8041 358.4904 L755.5057 360.925 Z" clip-path="url(#clipPath2)" stroke="none"/>
    </g>
    <g fill="rgb(245,245,245)" text-rendering="geometricPrecision" shape-rendering="geometricPrecision" transform="matrix(1,0,0,1,-176,-178)" stroke="rgb(245,245,245)">
      <rect x="874.35" y="193.0391" clip-path="url(#clipPath2)" width="305" rx="4" ry="4" height="232.4609" stroke="none"/>
      <rect x="874.35" y="193.0391" clip-path="url(#clipPath2)" fill="rgb(235,235,235)" width="305" height="21.4609" stroke="none"/>
    </g>
    <g font-size="15px" stroke-linecap="butt" transform="matrix(1,0,0,1,-176,-178)" text-rendering="geometricPrecision" font-family="sans-serif" shape-rendering="geometricPrecision" stroke-miterlimit="1.45">
      <text x="894.8475" xml:space="preserve" y="208.9624" clip-path="url(#clipPath2)" stroke="none">Zusätzliche solph Komponente (MILP)</text>
      <rect x="874.35" y="193.0391" clip-path="url(#clipPath2)" fill="none" width="305" stroke-dasharray="6,2" rx="4" ry="4" height="232.4609"/>
    </g>
    <g fill="silver" text-rendering="geometricPrecision" shape-rendering="geometricPrecision" transform="matrix(1,0,0,1,-176,-178)" stroke="silver">
      <circle r="30" clip-path="url(#clipPath2)" cx="919.35" cy="320" stroke="none"/>
    </g>
    <g text-rendering="geometricPrecision" stroke-miterlimit="1.45" shape-rendering="geometricPrecision" transform="matrix(1,0,0,1,-176,-178)" stroke-linecap="butt">
      <circle fill="none" r="30" clip-path="url(#clipPath2)" cx="919.35" cy="320"/>
      <text x="896.5072" xml:space="preserve" y="317.1699" clip-path="url(#clipPath2)" font-family="sans-serif" stroke="none">Erdgas-</text>
      <text x="908.3051" xml:space="preserve" y="331.1387" clip-path="url(#clipPath2)" font-family="sans-serif" stroke="none">Bus</text>
    </g>
    <g fill="silver" text-rendering="geometricPrecision" shape-rendering="geometricPrecision" transform="matrix(1,0,0,1,-176,-178)" stroke="silver">
      <circle r="30" clip-path="url(#clipPath2)" cx="1134.35" cy="380.5" stroke="none"/>
    </g>
    <g text-rendering="geometricPrecision" stroke-miterlimit="1.45" shape-rendering="geometricPrecision" transform="matrix(1,0,0,1,-176,-178)" stroke-linecap="butt">
      <circle fill="none" r="30" clip-path="url(#clipPath2)" cx="1134.35" cy="380.5"/>
      <text x="1110.5726" xml:space="preserve" y="377.6699" clip-path="url(#clipPath2)" font-family="sans-serif" stroke="none">Wärme-</text>
      <text x="1123.3051" xml:space="preserve" y="391.6387" clip-path="url(#clipPath2)" font-family="sans-serif" stroke="none">Bus</text>
    </g>
    <g fill="silver" text-rendering="geometricPrecision" shape-rendering="geometricPrecision" transform="matrix(1,0,0,1,-176,-178)" stroke="silver">
      <circle r="30" clip-path="url(#clipPath2)" cx="1134.35" cy="259.5" stroke="none"/>
    </g>
    <g text-rendering="geometricPrecision" stroke-miterlimit="1.45" shape-rendering="geometricPrecision" transform="matrix(1,0,0,1,-176,-178)" stroke-linecap="butt">
      <circle fill="none" r="30" clip-path="url(#clipPath2)" cx="1134.35" cy="259.5"/>
      <text x="1114.0414" xml:space="preserve" y="256.6699" clip-path="url(#clipPath2)" font-family="sans-serif" stroke="none">Strom-</text>
      <text x="1123.3051" xml:space="preserve" y="270.6387" clip-path="url(#clipPath2)" font-family="sans-serif" stroke="none">Bus</text>
    </g>
    <g fill="rgb(204,255,204)" text-rendering="geometricPrecision" shape-rendering="geometricPrecision" transform="matrix(1,0,0,1,-176,-178)" stroke="rgb(204,255,204)">
      <rect x="996.35" y="301.8" clip-path="url(#clipPath2)" width="99" rx="4" ry="4" height="36.4" stroke="none"/>
    </g>
    <g text-rendering="geometricPrecision" stroke-miterlimit="1.45" shape-rendering="geometricPrecision" transform="matrix(1,0,0,1,-176,-178)" stroke-linecap="butt">
      <rect x="996.35" y="301.8" clip-path="url(#clipPath2)" fill="none" width="99" rx="4" ry="4" height="36.4"/>
      <text x="1008.3558" xml:space="preserve" y="324.1543" clip-path="url(#clipPath2)" font-family="sans-serif" stroke="none">Generic CHP</text>
      <path fill="none" d="M949.35 320 L988.3278 320" clip-path="url(#clipPath2)"/>
      <path d="M996.3278 320 L984.3278 315 L987.3278 320 L984.3278 325 Z" clip-path="url(#clipPath2)" stroke="none"/>
      <path fill="none" d="M1072.4907 301.788 L1102.9796 280.9453" clip-path="url(#clipPath2)"/>
      <path d="M1109.5839 276.4305 L1096.8557 279.075 L1102.1541 281.5096 L1102.4993 287.3304 Z" clip-path="url(#clipPath2)" stroke="none"/>
      <path fill="none" d="M1072.4907 338.212 L1102.9796 359.0547" clip-path="url(#clipPath2)"/>
      <path d="M1109.5839 363.5695 L1102.4993 352.6696 L1102.1541 358.4904 L1096.8557 360.925 Z" clip-path="url(#clipPath2)" stroke="none"/>
    </g>
  </g>
</svg>
