<?xml version="1.0" encoding="UTF-8"?><svg xmlns="http://www.w3.org/2000/svg" xmlns:xlink="http://www.w3.org/1999/xlink" fill-opacity="1" color-rendering="auto" color-interpolation="auto" text-rendering="auto" stroke="black" stroke-linecap="square" width="924" stroke-miterlimit="10" shape-rendering="auto" stroke-opacity="1" fill="black" stroke-dasharray="none" font-weight="normal" stroke-width="1" height="621" font-family="'Dialog'" font-style="normal" stroke-linejoin="miter" font-size="12px" stroke-dashoffset="0" image-rendering="auto">
  <!--Generated by ySVG 2.5-->
  <defs id="genericDefs"/>
  <g>
    <defs id="defs1">
      <clipPath clipPathUnits="userSpaceOnUse" id="clipPath1">
        <path d="M0 0 L924 0 L924 621 L0 621 L0 0 Z"/>
      </clipPath>
      <clipPath clipPathUnits="userSpaceOnUse" id="clipPath2">
        <path d="M-491 -302 L433 -302 L433 319 L-491 319 L-491 -302 Z"/>
      </clipPath>
    </defs>
    <g fill="white" text-rendering="geometricPrecision" shape-rendering="geometricPrecision" transform="translate(491,302)" stroke="white">
      <rect x="-491" width="924" height="621" y="-302" clip-path="url(#clipPath2)" stroke="none"/>
    </g>
    <g fill="rgb(245,245,245)" text-rendering="geometricPrecision" shape-rendering="geometricPrecision" transform="matrix(1,0,0,1,491,302)" stroke="rgb(245,245,245)">
      <rect x="-476" y="-286.9609" clip-path="url(#clipPath2)" width="224" rx="4" ry="4" height="588.9297" stroke="none"/>
      <rect x="-476" y="-286.9609" clip-path="url(#clipPath2)" fill="rgb(235,235,235)" width="224" height="21.4609" stroke="none"/>
    </g>
    <g font-size="15px" stroke-linecap="butt" transform="matrix(1,0,0,1,491,302)" text-rendering="geometricPrecision" font-family="sans-serif" shape-rendering="geometricPrecision" stroke-miterlimit="1.45">
      <text x="-351.0239" xml:space="preserve" y="-271.0376" clip-path="url(#clipPath2)" stroke="none">Überregional</text>
      <rect x="-476" y="-286.9609" clip-path="url(#clipPath2)" fill="none" width="224" stroke-dasharray="6,2" rx="4" ry="4" height="588.9297"/>
    </g>
    <g fill="rgb(238,238,238)" text-rendering="geometricPrecision" shape-rendering="geometricPrecision" transform="matrix(1,0,0,1,491,302)" stroke="rgb(238,238,238)">
      <ellipse rx="61.5" ry="17.5" clip-path="url(#clipPath2)" cx="-361.5" cy="12.5" stroke="none"/>
    </g>
    <g text-rendering="geometricPrecision" stroke-miterlimit="1.45" shape-rendering="geometricPrecision" transform="matrix(1,0,0,1,491,302)" stroke-linecap="butt">
      <ellipse rx="61.5" fill="none" ry="17.5" clip-path="url(#clipPath2)" cx="-361.5" cy="12.5"/>
      <text x="-413.0947" xml:space="preserve" y="16.6543" clip-path="url(#clipPath2)" font-family="sans-serif" stroke="none">Ressourcenbus A</text>
    </g>
    <g fill="rgb(112,112,112)" text-rendering="geometricPrecision" shape-rendering="geometricPrecision" transform="matrix(1,0,0,1,491,302)" stroke="rgb(112,112,112)">
      <rect x="-450" y="-250.5" clip-path="url(#clipPath2)" width="177" rx="4" ry="4" height="41" stroke="none"/>
    </g>
    <g text-rendering="geometricPrecision" stroke-miterlimit="1.45" shape-rendering="geometricPrecision" transform="matrix(1,0,0,1,491,302)" stroke-linecap="butt">
      <rect x="-450" y="-250.5" clip-path="url(#clipPath2)" fill="none" width="177" rx="4" ry="4" height="41"/>
      <text x="-438.3105" y="-232.8301" clip-path="url(#clipPath2)" fill="white" font-family="sans-serif" stroke="none" xml:space="preserve">Gesamtbedarf dezentrale</text>
      <text x="-440.8154" y="-218.8613" clip-path="url(#clipPath2)" fill="white" font-family="sans-serif" stroke="none" xml:space="preserve">Wärme aus Heizungstyp A</text>
    </g>
    <g fill="rgb(238,238,238)" text-rendering="geometricPrecision" shape-rendering="geometricPrecision" transform="matrix(1,0,0,1,491,302)" stroke="rgb(238,238,238)">
      <ellipse rx="54" ry="17.5" clip-path="url(#clipPath2)" cx="-361.5" cy="-145.5" stroke="none"/>
    </g>
    <g text-rendering="geometricPrecision" stroke-miterlimit="1.45" shape-rendering="geometricPrecision" transform="matrix(1,0,0,1,491,302)" stroke-linecap="butt">
      <ellipse rx="54" fill="none" ry="17.5" clip-path="url(#clipPath2)" cx="-361.5" cy="-145.5"/>
      <text x="-395.9648" xml:space="preserve" y="-148.3301" clip-path="url(#clipPath2)" font-family="sans-serif" stroke="none">dezentraler</text>
      <text x="-399.8613" xml:space="preserve" y="-134.3613" clip-path="url(#clipPath2)" font-family="sans-serif" stroke="none">Wärmebus A</text>
    </g>
    <g fill="silver" text-rendering="geometricPrecision" shape-rendering="geometricPrecision" transform="matrix(1,0,0,1,491,302)" stroke="silver">
      <rect x="-418.5" y="-81.5" clip-path="url(#clipPath2)" width="114" rx="4" ry="4" height="30" stroke="none"/>
    </g>
    <g text-rendering="geometricPrecision" stroke-miterlimit="1.45" shape-rendering="geometricPrecision" transform="matrix(1,0,0,1,491,302)" stroke-linecap="butt">
      <rect x="-418.5" y="-81.5" clip-path="url(#clipPath2)" fill="none" width="114" rx="4" ry="4" height="30"/>
      <text x="-396.624" xml:space="preserve" y="-69.3301" clip-path="url(#clipPath2)" font-family="sans-serif" stroke="none">dezentrales</text>
      <text x="-416.7627" xml:space="preserve" y="-55.3613" clip-path="url(#clipPath2)" font-family="sans-serif" stroke="none">Heizungssystem A</text>
    </g>
    <g fill="rgb(221,221,221)" text-rendering="geometricPrecision" shape-rendering="geometricPrecision" transform="matrix(1,0,0,1,491,302)" stroke="rgb(221,221,221)">
      <rect x="-461" y="96" clip-path="url(#clipPath2)" width="114" rx="4" ry="4" height="30" stroke="none"/>
    </g>
    <g text-rendering="geometricPrecision" stroke-miterlimit="1.45" shape-rendering="geometricPrecision" transform="matrix(1,0,0,1,491,302)" stroke-linecap="butt">
      <rect x="-461" y="96" clip-path="url(#clipPath2)" fill="none" width="114" rx="4" ry="4" height="30"/>
      <text x="-441.0547" xml:space="preserve" y="115.1543" clip-path="url(#clipPath2)" font-family="sans-serif" stroke="none">Ressource A</text>
    </g>
    <g fill="rgb(153,153,153)" text-rendering="geometricPrecision" shape-rendering="geometricPrecision" transform="matrix(1,0,0,1,491,302)" stroke="rgb(153,153,153)">
      <rect x="-381" y="156" clip-path="url(#clipPath2)" width="114" rx="4" ry="4" height="30" stroke="none"/>
    </g>
    <g text-rendering="geometricPrecision" stroke-miterlimit="1.45" stroke-dasharray="6,2" shape-rendering="geometricPrecision" transform="matrix(1,0,0,1,491,302)" stroke-linecap="butt">
      <rect x="-381" y="156" clip-path="url(#clipPath2)" fill="none" width="114" rx="4" ry="4" height="30"/>
    </g>
    <g stroke-linecap="butt" transform="matrix(1,0,0,1,491,302)" fill="white" text-rendering="geometricPrecision" font-family="sans-serif" shape-rendering="geometricPrecision" stroke="white" stroke-miterlimit="1.45">
      <text x="-378.4102" xml:space="preserve" y="168.1699" clip-path="url(#clipPath2)" stroke="none">Ressourcenbedarf</text>
      <text x="-350.0391" xml:space="preserve" y="182.1387" clip-path="url(#clipPath2)" stroke="none">Mobilität</text>
      <path fill="none" d="M-361.5 -163 L-361.5 -201.4878" clip-path="url(#clipPath2)" stroke="black"/>
      <path fill="black" d="M-361.5 -209.4878 L-366.5 -197.4878 L-361.5 -200.4878 L-356.5 -197.4878 Z" clip-path="url(#clipPath2)" stroke="none"/>
      <path fill="none" d="M-361.5 -5 L-361.5 -43.5154" clip-path="url(#clipPath2)" stroke="black"/>
      <path fill="black" d="M-361.5 -51.5154 L-366.5 -39.5154 L-361.5 -42.5154 L-356.5 -39.5154 Z" clip-path="url(#clipPath2)" stroke="none"/>
      <path fill="none" d="M-361.5 -81.5054 L-361.5 -120" clip-path="url(#clipPath2)" stroke="black"/>
      <path fill="black" d="M-361.5 -128 L-366.5 -116 L-361.5 -119 L-356.5 -116 Z" clip-path="url(#clipPath2)" stroke="none"/>
      <path fill="none" d="M-397.5358 96.0182 L-372.1638 37.215" clip-path="url(#clipPath2)" stroke="black"/>
      <path fill="black" d="M-368.9945 29.8696 L-378.3394 38.9069 L-372.56 38.1332 L-369.1576 42.8685 Z" clip-path="url(#clipPath2)" stroke="none"/>
    </g>
    <g text-rendering="geometricPrecision" stroke-miterlimit="1.45" stroke-dasharray="6,2" shape-rendering="geometricPrecision" transform="matrix(1,0,0,1,491,302)" stroke-linecap="butt">
      <path fill="none" d="M-357.369 29.9605 L-329.3857 148.2364" clip-path="url(#clipPath2)"/>
      <path d="M-327.5438 156.0214 L-325.441 143.1926 L-329.6159 147.2632 L-335.1723 145.495 Z" clip-path="url(#clipPath2)" stroke="none"/>
    </g>
    <g fill="rgb(245,245,245)" text-rendering="geometricPrecision" shape-rendering="geometricPrecision" transform="matrix(1,0,0,1,491,302)" stroke="rgb(245,245,245)">
      <rect x="-209" y="-286.9609" clip-path="url(#clipPath2)" width="626" rx="4" ry="4" height="590.9609" stroke="none"/>
      <rect x="-209" y="-286.9609" clip-path="url(#clipPath2)" fill="rgb(235,235,235)" width="626" height="21.4609" stroke="none"/>
    </g>
    <g font-size="15px" stroke-linecap="butt" transform="matrix(1,0,0,1,491,302)" text-rendering="geometricPrecision" font-family="sans-serif" shape-rendering="geometricPrecision" stroke-miterlimit="1.45">
      <text x="334.5874" xml:space="preserve" y="-271.0376" clip-path="url(#clipPath2)" stroke="none">Regional A</text>
      <rect x="-209" y="-286.9609" clip-path="url(#clipPath2)" fill="none" width="626" stroke-dasharray="6,2" rx="4" ry="4" height="590.9609"/>
    </g>
    <g fill="rgb(238,238,238)" text-rendering="geometricPrecision" shape-rendering="geometricPrecision" transform="matrix(1,0,0,1,491,302)" stroke="rgb(238,238,238)">
      <ellipse rx="54" ry="17.5" clip-path="url(#clipPath2)" cx="51" cy="-37" stroke="none"/>
    </g>
    <g text-rendering="geometricPrecision" stroke-miterlimit="1.45" shape-rendering="geometricPrecision" transform="matrix(1,0,0,1,491,302)" stroke-linecap="butt">
      <ellipse rx="54" fill="none" ry="17.5" clip-path="url(#clipPath2)" cx="51" cy="-37"/>
      <text x="22.1191" xml:space="preserve" y="-32.8457" clip-path="url(#clipPath2)" font-family="sans-serif" stroke="none">Strombus</text>
    </g>
    <g fill="rgb(238,238,238)" text-rendering="geometricPrecision" shape-rendering="geometricPrecision" transform="matrix(1,0,0,1,491,302)" stroke="rgb(238,238,238)">
      <ellipse rx="54" ry="17.5" clip-path="url(#clipPath2)" cx="51" cy="169.5" stroke="none"/>
    </g>
    <g text-rendering="geometricPrecision" stroke-miterlimit="1.45" shape-rendering="geometricPrecision" transform="matrix(1,0,0,1,491,302)" stroke-linecap="butt">
      <ellipse rx="54" fill="none" ry="17.5" clip-path="url(#clipPath2)" cx="51" cy="169.5"/>
      <text x="6.2637" xml:space="preserve" y="173.6543" clip-path="url(#clipPath2)" font-family="sans-serif" stroke="none">Fernwärmebus</text>
    </g>
    <g fill="silver" text-rendering="geometricPrecision" shape-rendering="geometricPrecision" transform="matrix(1,0,0,1,491,302)" stroke="silver">
      <rect x="-174" y="50" clip-path="url(#clipPath2)" width="114" rx="4" ry="4" height="30" stroke="none"/>
    </g>
    <g text-rendering="geometricPrecision" stroke-miterlimit="1.45" shape-rendering="geometricPrecision" transform="matrix(1,0,0,1,491,302)" stroke-linecap="butt">
      <rect x="-174" y="50" clip-path="url(#clipPath2)" fill="none" width="114" rx="4" ry="4" height="30"/>
      <text x="-159.7295" xml:space="preserve" y="69.1543" clip-path="url(#clipPath2)" font-family="sans-serif" stroke="none">KWK-Anlage A</text>
    </g>
    <g fill="silver" text-rendering="geometricPrecision" shape-rendering="geometricPrecision" transform="matrix(1,0,0,1,491,302)" stroke="silver">
      <rect x="-174" y="-54.5" clip-path="url(#clipPath2)" width="114" rx="4" ry="4" height="30" stroke="none"/>
    </g>
    <g text-rendering="geometricPrecision" stroke-miterlimit="1.45" shape-rendering="geometricPrecision" transform="matrix(1,0,0,1,491,302)" stroke-linecap="butt">
      <rect x="-174" y="-54.5" clip-path="url(#clipPath2)" fill="none" width="114" rx="4" ry="4" height="30"/>
      <text x="-152.0947" xml:space="preserve" y="-35.3457" clip-path="url(#clipPath2)" font-family="sans-serif" stroke="none">Kraftwerk A</text>
    </g>
    <g fill="silver" text-rendering="geometricPrecision" shape-rendering="geometricPrecision" transform="matrix(1,0,0,1,491,302)" stroke="silver">
      <rect x="-174" y="154.5" clip-path="url(#clipPath2)" width="114" rx="4" ry="4" height="30" stroke="none"/>
    </g>
    <g text-rendering="geometricPrecision" stroke-miterlimit="1.45" shape-rendering="geometricPrecision" transform="matrix(1,0,0,1,491,302)" stroke-linecap="butt">
      <rect x="-174" y="154.5" clip-path="url(#clipPath2)" fill="none" width="114" rx="4" ry="4" height="30"/>
      <text x="-150.5713" xml:space="preserve" y="173.6543" clip-path="url(#clipPath2)" font-family="sans-serif" stroke="none">Heizwerk A</text>
    </g>
    <g fill="rgb(112,112,112)" text-rendering="geometricPrecision" shape-rendering="geometricPrecision" transform="matrix(1,0,0,1,491,302)" stroke="rgb(112,112,112)">
      <rect x="182" y="154.5" clip-path="url(#clipPath2)" width="114" rx="4" ry="4" height="30" stroke="none"/>
    </g>
    <g text-rendering="geometricPrecision" stroke-miterlimit="1.45" shape-rendering="geometricPrecision" transform="matrix(1,0,0,1,491,302)" stroke-linecap="butt">
      <rect x="182" y="154.5" clip-path="url(#clipPath2)" fill="none" width="114" rx="4" ry="4" height="30"/>
      <text x="198.2275" y="166.6699" clip-path="url(#clipPath2)" fill="white" font-family="sans-serif" stroke="none" xml:space="preserve">kummulierter</text>
      <text x="185.4365" y="180.6387" clip-path="url(#clipPath2)" fill="white" font-family="sans-serif" stroke="none" xml:space="preserve">Fernwärmebedarf</text>
    </g>
    <g fill="rgb(153,153,153)" text-rendering="geometricPrecision" shape-rendering="geometricPrecision" transform="matrix(1,0,0,1,491,302)" stroke="rgb(153,153,153)">
      <path d="M-16 -167.9632 L23.2477 -176.75 L78.7523 -176.75 L118 -167.9632 L118 -155.5368 L78.7523 -146.75 L23.2477 -146.75 L-16 -155.5368 Z" fill-rule="evenodd" clip-path="url(#clipPath2)" stroke="none"/>
    </g>
    <g text-rendering="geometricPrecision" stroke-miterlimit="1.45" shape-rendering="geometricPrecision" transform="matrix(1,0,0,1,491,302)" stroke-linecap="butt">
      <path fill="none" d="M-16 -167.9632 L23.2477 -176.75 L78.7523 -176.75 L118 -167.9632 L118 -155.5368 L78.7523 -146.75 L23.2477 -146.75 L-16 -155.5368 Z" fill-rule="evenodd" clip-path="url(#clipPath2)"/>
      <text x="1.292" xml:space="preserve" y="-157.5957" clip-path="url(#clipPath2)" font-family="sans-serif" stroke="none">Stromspeicher A</text>
    </g>
    <g fill="rgb(153,153,153)" text-rendering="geometricPrecision" shape-rendering="geometricPrecision" transform="matrix(1,0,0,1,491,302)" stroke="rgb(153,153,153)">
      <path d="M-16 241.7868 L23.2477 233 L78.7523 233 L118 241.7868 L118 254.2132 L78.7523 263 L23.2477 263 L-16 254.2132 Z" fill-rule="evenodd" clip-path="url(#clipPath2)" stroke="none"/>
    </g>
    <g text-rendering="geometricPrecision" stroke-miterlimit="1.45" stroke-dasharray="6,2" shape-rendering="geometricPrecision" transform="matrix(1,0,0,1,491,302)" stroke-linecap="butt">
      <path fill="none" d="M-16 241.7868 L23.2477 233 L78.7523 233 L118 241.7868 L118 254.2132 L78.7523 263 L23.2477 263 L-16 254.2132 Z" fill-rule="evenodd" clip-path="url(#clipPath2)"/>
    </g>
    <g stroke-linecap="butt" transform="matrix(1,0,0,1,491,302)" fill="white" text-rendering="geometricPrecision" font-family="sans-serif" shape-rendering="geometricPrecision" stroke="white" stroke-miterlimit="1.45">
      <text x="-2.1768" xml:space="preserve" y="252.1543" clip-path="url(#clipPath2)" stroke="none">Wärmespeicher A</text>
    </g>
    <g fill="gray" text-rendering="geometricPrecision" shape-rendering="geometricPrecision" transform="matrix(1,0,0,1,491,302)" stroke="gray">
      <rect x="-6" y="50" clip-path="url(#clipPath2)" width="114" rx="4" ry="4" height="30" stroke="none"/>
    </g>
    <g text-rendering="geometricPrecision" stroke-miterlimit="1.45" shape-rendering="geometricPrecision" transform="matrix(1,0,0,1,491,302)" stroke-linecap="butt">
      <rect x="-6" y="50" clip-path="url(#clipPath2)" fill="none" width="114" rx="4" ry="4" height="30"/>
      <text x="8.2295" y="69.1543" clip-path="url(#clipPath2)" fill="white" font-family="sans-serif" stroke="none" xml:space="preserve">elektr. Wärme</text>
    </g>
    <g fill="rgb(112,112,112)" text-rendering="geometricPrecision" shape-rendering="geometricPrecision" transform="matrix(1,0,0,1,491,302)" stroke="rgb(112,112,112)">
      <rect x="182" y="-250.5" clip-path="url(#clipPath2)" width="177" rx="4" ry="4" height="41" stroke="none"/>
    </g>
    <g text-rendering="geometricPrecision" stroke-miterlimit="1.45" shape-rendering="geometricPrecision" transform="matrix(1,0,0,1,491,302)" stroke-linecap="butt">
      <rect x="182" y="-250.5" clip-path="url(#clipPath2)" fill="none" width="177" rx="4" ry="4" height="41"/>
      <text x="193.6895" y="-232.8301" clip-path="url(#clipPath2)" fill="white" font-family="sans-serif" stroke="none" xml:space="preserve">Gesamtbedarf dezentrale</text>
      <text x="191.1729" y="-218.8613" clip-path="url(#clipPath2)" fill="white" font-family="sans-serif" stroke="none" xml:space="preserve">Wärme aus Heizungstyp B</text>
    </g>
    <g fill="rgb(238,238,238)" text-rendering="geometricPrecision" shape-rendering="geometricPrecision" transform="matrix(1,0,0,1,491,302)" stroke="rgb(238,238,238)">
      <ellipse rx="54" ry="17.5" clip-path="url(#clipPath2)" cx="51" cy="-230" stroke="none"/>
    </g>
    <g text-rendering="geometricPrecision" stroke-miterlimit="1.45" shape-rendering="geometricPrecision" transform="matrix(1,0,0,1,491,302)" stroke-linecap="butt">
      <ellipse rx="54" fill="none" ry="17.5" clip-path="url(#clipPath2)" cx="51" cy="-230"/>
      <text x="16.5352" xml:space="preserve" y="-232.8301" clip-path="url(#clipPath2)" font-family="sans-serif" stroke="none">dezentraler</text>
      <text x="12.627" xml:space="preserve" y="-218.8613" clip-path="url(#clipPath2)" font-family="sans-serif" stroke="none">Wärmebus B</text>
    </g>
    <g fill="silver" text-rendering="geometricPrecision" shape-rendering="geometricPrecision" transform="matrix(1,0,0,1,491,302)" stroke="silver">
      <rect x="-167" y="-245" clip-path="url(#clipPath2)" width="114" rx="4" ry="4" height="30" stroke="none"/>
    </g>
    <g text-rendering="geometricPrecision" stroke-miterlimit="1.45" shape-rendering="geometricPrecision" transform="matrix(1,0,0,1,491,302)" stroke-linecap="butt">
      <rect x="-167" y="-245" clip-path="url(#clipPath2)" fill="none" width="114" rx="4" ry="4" height="30"/>
      <text x="-141.998" xml:space="preserve" y="-232.8301" clip-path="url(#clipPath2)" font-family="sans-serif" stroke="none">dezentrale</text>
      <text x="-158.7822" xml:space="preserve" y="-218.8613" clip-path="url(#clipPath2)" font-family="sans-serif" stroke="none">elektr. Wärme A</text>
    </g>
    <g fill="rgb(112,112,112)" text-rendering="geometricPrecision" shape-rendering="geometricPrecision" transform="matrix(1,0,0,1,491,302)" stroke="rgb(112,112,112)">
      <rect x="182" y="-81.5" clip-path="url(#clipPath2)" width="114" rx="4" ry="4" height="30" stroke="none"/>
    </g>
    <g text-rendering="geometricPrecision" stroke-miterlimit="1.45" shape-rendering="geometricPrecision" transform="matrix(1,0,0,1,491,302)" stroke-linecap="butt">
      <rect x="182" y="-81.5" clip-path="url(#clipPath2)" fill="none" width="114" rx="4" ry="4" height="30"/>
      <text x="195.7871" y="-69.3301" clip-path="url(#clipPath2)" fill="white" font-family="sans-serif" stroke="none" xml:space="preserve">unspezifischer</text>
      <text x="201.292" y="-55.3613" clip-path="url(#clipPath2)" fill="white" font-family="sans-serif" stroke="none" xml:space="preserve">Strombedarf</text>
    </g>
    <g fill="rgb(221,221,221)" text-rendering="geometricPrecision" shape-rendering="geometricPrecision" transform="matrix(1,0,0,1,491,302)" stroke="rgb(221,221,221)">
      <rect x="-174" y="-149.75" clip-path="url(#clipPath2)" width="114" rx="4" ry="4" height="30" stroke="none"/>
    </g>
    <g text-rendering="geometricPrecision" stroke-miterlimit="1.45" shape-rendering="geometricPrecision" transform="matrix(1,0,0,1,491,302)" stroke-linecap="butt">
      <rect x="-174" y="-149.75" clip-path="url(#clipPath2)" fill="none" width="114" rx="4" ry="4" height="30"/>
      <text x="-141.4043" xml:space="preserve" y="-137.5801" clip-path="url(#clipPath2)" font-family="sans-serif" stroke="none">Volatile </text>
      <text x="-159.1055" xml:space="preserve" y="-123.6113" clip-path="url(#clipPath2)" font-family="sans-serif" stroke="none">Einspeisung A</text>
    </g>
    <g fill="rgb(51,51,51)" text-rendering="geometricPrecision" shape-rendering="geometricPrecision" transform="matrix(1,0,0,1,491,302)" stroke="rgb(51,51,51)">
      <rect x="182" y="-13.25" clip-path="url(#clipPath2)" width="114" rx="4" ry="4" height="30" stroke="none"/>
    </g>
    <g stroke-linecap="butt" transform="matrix(1,0,0,1,491,302)" fill="white" text-rendering="geometricPrecision" shape-rendering="geometricPrecision" stroke="white" stroke-miterlimit="1.45">
      <rect x="182" y="-13.25" clip-path="url(#clipPath2)" fill="none" width="114" rx="4" ry="4" height="30"/>
      <text x="213.3477" y="5.9043" clip-path="url(#clipPath2)" fill="rgb(221,221,221)" font-family="sans-serif" stroke="none" xml:space="preserve">Export A</text>
    </g>
    <g fill="rgb(51,51,51)" text-rendering="geometricPrecision" shape-rendering="geometricPrecision" transform="matrix(1,0,0,1,491,302)" stroke="rgb(51,51,51)">
      <rect x="182" y="55" clip-path="url(#clipPath2)" width="114" rx="4" ry="4" height="30" stroke="none"/>
    </g>
    <g stroke-linecap="butt" transform="matrix(1,0,0,1,491,302)" fill="white" text-rendering="geometricPrecision" shape-rendering="geometricPrecision" stroke="white" stroke-miterlimit="1.45">
      <rect x="182" y="55" clip-path="url(#clipPath2)" fill="none" width="114" rx="4" ry="4" height="30"/>
      <text x="213.0752" y="74.1543" clip-path="url(#clipPath2)" fill="rgb(221,221,221)" font-family="sans-serif" stroke="none" xml:space="preserve">Import A</text>
    </g>
    <g fill="rgb(153,153,153)" text-rendering="geometricPrecision" shape-rendering="geometricPrecision" transform="matrix(1,0,0,1,491,302)" stroke="rgb(153,153,153)">
      <rect x="182" y="-149.75" clip-path="url(#clipPath2)" width="114" rx="4" ry="4" height="30" stroke="none"/>
    </g>
    <g text-rendering="geometricPrecision" stroke-miterlimit="1.45" stroke-dasharray="6,2" shape-rendering="geometricPrecision" transform="matrix(1,0,0,1,491,302)" stroke-linecap="butt">
      <rect x="182" y="-149.75" clip-path="url(#clipPath2)" fill="none" width="114" rx="4" ry="4" height="30"/>
    </g>
    <g stroke-linecap="butt" transform="matrix(1,0,0,1,491,302)" fill="white" text-rendering="geometricPrecision" font-family="sans-serif" shape-rendering="geometricPrecision" stroke="white" stroke-miterlimit="1.45">
      <text x="190.6016" xml:space="preserve" y="-137.5801" clip-path="url(#clipPath2)" stroke="none">Ladinfrastruktur</text>
      <text x="212.9609" xml:space="preserve" y="-123.6113" clip-path="url(#clipPath2)" stroke="none">Mobilität</text>
    </g>
    <g fill="rgb(245,245,245)" text-rendering="geometricPrecision" shape-rendering="geometricPrecision" transform="matrix(1,0,0,1,491,302)" stroke="rgb(245,245,245)">
      <ellipse rx="16" ry="17.5" clip-path="url(#clipPath2)" cx="361" cy="1.75" stroke="none"/>
      <ellipse stroke-linecap="butt" clip-path="url(#clipPath2)" fill="none" rx="16" cx="361" ry="17.5" cy="1.75" stroke-miterlimit="1.45"/>
      <ellipse rx="57" ry="17.5" clip-path="url(#clipPath2)" cx="345" cy="35.875" stroke="none"/>
      <ellipse stroke-linecap="butt" clip-path="url(#clipPath2)" fill="none" rx="57" cx="345" ry="17.5" cy="35.875" stroke-miterlimit="1.45"/>
    </g>
    <g text-rendering="geometricPrecision" stroke-miterlimit="1.45" shape-rendering="geometricPrecision" font-family="sans-serif" transform="matrix(1,0,0,1,491,302)" stroke-linecap="butt">
      <text x="296.2734" xml:space="preserve" y="40.0293" clip-path="url(#clipPath2)" stroke="none">von/zu Region A</text>
    </g>
    <g fill="rgb(245,245,245)" text-rendering="geometricPrecision" shape-rendering="geometricPrecision" transform="matrix(1,0,0,1,491,302)" stroke="rgb(245,245,245)">
      <ellipse rx="16" ry="17.5" clip-path="url(#clipPath2)" cx="361" cy="70" stroke="none"/>
      <ellipse stroke-linecap="butt" clip-path="url(#clipPath2)" fill="none" rx="16" cx="361" ry="17.5" cy="70" stroke-miterlimit="1.45"/>
    </g>
    <g text-rendering="geometricPrecision" stroke-miterlimit="1.45" shape-rendering="geometricPrecision" transform="matrix(1,0,0,1,491,302)" stroke-linecap="butt">
      <path fill="none" d="M-312.4086 23.0411 L-181.641 51.12" clip-path="url(#clipPath2)"/>
      <path d="M-173.8193 52.7995 L-184.5021 45.3917 L-182.6187 50.9101 L-186.6015 55.1689 Z" clip-path="url(#clipPath2)" stroke="none"/>
      <path fill="none" d="M-92.2676 49.9839 L18.7338 -17.4098" clip-path="url(#clipPath2)"/>
      <path d="M25.5721 -21.5616 L12.7197 -19.6078 L17.879 -16.8908 L17.9095 -11.0599 Z" clip-path="url(#clipPath2)" stroke="none"/>
      <path fill="none" d="M-92.9238 79.976 L19.2562 149.7546" clip-path="url(#clipPath2)"/>
      <path d="M26.0493 153.9801 L18.5006 143.3962 L18.4071 149.2264 L13.2188 151.8876 Z" clip-path="url(#clipPath2)" stroke="none"/>
      <path fill="none" d="M-312.2389 2.0232 L-181.6902 -25.7418" clip-path="url(#clipPath2)"/>
      <path d="M-173.8652 -27.406 L-186.6429 -29.8003 L-182.6684 -25.5337 L-184.5626 -20.019 Z" clip-path="url(#clipPath2)" stroke="none"/>
      <path fill="none" d="M-60.0293 -38.6522 L-10.9423 -37.9218" clip-path="url(#clipPath2)"/>
      <path d="M-2.9432 -37.8027 L-14.8674 -42.9807 L-11.9422 -37.9366 L-15.0162 -32.9818 Z" clip-path="url(#clipPath2)" stroke="none"/>
      <path fill="none" d="M-336.5837 28.4994 L-147.0785 150.1858" clip-path="url(#clipPath2)"/>
      <path d="M-140.3468 154.5084 L-147.7427 143.8172 L-147.92 149.6454 L-153.146 152.2318 Z" clip-path="url(#clipPath2)" stroke="none"/>
      <path fill="none" d="M-60.0293 169.5 L-11 169.5" clip-path="url(#clipPath2)"/>
      <path d="M-3 169.5 L-15 164.5 L-12 169.5 L-15 174.5 Z" clip-path="url(#clipPath2)" stroke="none"/>
      <path fill="none" d="M105 169.5 L173.978 169.5" clip-path="url(#clipPath2)"/>
      <path d="M181.978 169.5 L169.978 164.5 L172.978 169.5 L169.978 174.5 Z" clip-path="url(#clipPath2)" stroke="none"/>
      <path fill="none" d="M51 -62.5 L51 -138.7465" clip-path="url(#clipPath2)"/>
      <path d="M51 -54.5 L56 -66.5 L51 -63.5 L46 -66.5 Z" clip-path="url(#clipPath2)" stroke="none"/>
      <path d="M51 -146.7465 L46 -134.7465 L51 -137.7465 L56 -134.7465 Z" clip-path="url(#clipPath2)" stroke="none"/>
      <path fill="none" stroke-dasharray="6,2" d="M51 195 L51 225.0181" clip-path="url(#clipPath2)"/>
      <path stroke-dasharray="6,2" d="M51 187 L46 199 L51 196 L56 199 Z" clip-path="url(#clipPath2)" stroke="none"/>
      <path stroke-dasharray="6,2" d="M51 233.0181 L56 221.0181 L51 224.0181 L46 221.0181 Z" clip-path="url(#clipPath2)" stroke="none"/>
      <path fill="none" d="M51 -19.5 L51 42.0227" clip-path="url(#clipPath2)"/>
      <path d="M51 50.0227 L56 38.0227 L51 41.0227 L46 38.0227 Z" clip-path="url(#clipPath2)" stroke="none"/>
      <path fill="none" d="M51 79.976 L51 144" clip-path="url(#clipPath2)"/>
      <path d="M51 152 L56 140 L51 143 L46 140 Z" clip-path="url(#clipPath2)" stroke="none"/>
      <path fill="none" d="M105 -230 L173.972 -230" clip-path="url(#clipPath2)"/>
      <path d="M181.972 -230 L169.972 -235 L172.972 -230 L169.972 -225 Z" clip-path="url(#clipPath2)" stroke="none"/>
      <path fill="none" d="M36.9074 -53.8936 L-92.3761 -208.8732" clip-path="url(#clipPath2)"/>
      <path d="M-97.5007 -215.0163 L-93.6532 -202.5987 L-91.7355 -208.1053 L-85.9743 -209.0045 Z" clip-path="url(#clipPath2)" stroke="none"/>
      <path fill="none" d="M-52.9661 -230 L-11 -230" clip-path="url(#clipPath2)"/>
      <path d="M-3 -230 L-15 -235 L-12 -230 L-15 -225 Z" clip-path="url(#clipPath2)" stroke="none"/>
      <path fill="none" d="M99.6024 -44.6264 L174.0921 -56.315" clip-path="url(#clipPath2)"/>
      <path d="M181.9954 -57.5551 L169.3653 -60.6345 L173.1042 -56.16 L170.9155 -50.7554 Z" clip-path="url(#clipPath2)" stroke="none"/>
      <path fill="none" d="M-91.2012 -119.7391 L17.8094 -56.3118" clip-path="url(#clipPath2)"/>
      <path d="M24.7241 -52.2885 L16.8666 -62.6451 L16.945 -56.8147 L11.8375 -54.0018 Z" clip-path="url(#clipPath2)" stroke="none"/>
      <path fill="none" d="M96.5648 -27.6083 L174.2393 -11.5983" clip-path="url(#clipPath2)"/>
      <path d="M182.0746 -9.9833 L171.3311 -17.3028 L173.2599 -11.8001 L169.3123 -7.5087 Z" clip-path="url(#clipPath2)" stroke="none"/>
      <path fill="none" d="M212.6313 54.9923 L84.6725 -17.8353" clip-path="url(#clipPath2)"/>
      <path d="M77.7197 -21.7925 L85.6757 -11.5113 L85.5416 -17.3407 L90.6221 -20.2022 Z" clip-path="url(#clipPath2)" stroke="none"/>
      <path fill="none" stroke-dasharray="6,2" d="M79.5633 -51.8514 L203.0587 -116.0624" clip-path="url(#clipPath2)"/>
      <path stroke-dasharray="6,2" d="M210.1566 -119.753 L197.2032 -118.6534 L202.1715 -115.6011 L201.8163 -109.781 Z" clip-path="url(#clipPath2)" stroke="none"/>
      <path fill="none" d="M295.979 1.75 L337 1.75" clip-path="url(#clipPath2)"/>
      <path d="M345 1.75 L333 -3.25 L336 1.75 L333 6.75 Z" clip-path="url(#clipPath2)" stroke="none"/>
      <path fill="none" d="M345 70 L304.0112 70" clip-path="url(#clipPath2)"/>
      <path d="M296.0112 70 L308.0112 75 L305.0112 70 L308.0112 65 Z" clip-path="url(#clipPath2)" stroke="none"/>
    </g>
  </g>
</svg>
