<?xml version="1.0" encoding="UTF-8"?><svg xmlns="http://www.w3.org/2000/svg" xmlns:xlink="http://www.w3.org/1999/xlink" fill-opacity="1" color-rendering="auto" color-interpolation="auto" text-rendering="auto" stroke="black" stroke-linecap="square" width="956" stroke-miterlimit="10" shape-rendering="auto" stroke-opacity="1" fill="black" stroke-dasharray="none" font-weight="normal" stroke-width="1" height="495" font-family="'Dialog'" font-style="normal" stroke-linejoin="miter" font-size="12px" stroke-dashoffset="0" image-rendering="auto">
  <!--Generated by ySVG 2.5-->
  <defs id="genericDefs"/>
  <g>
    <defs id="defs1">
      <clipPath clipPathUnits="userSpaceOnUse" id="clipPath1">
        <path d="M0 0 L956 0 L956 495 L0 495 L0 0 Z"/>
      </clipPath>
      <clipPath clipPathUnits="userSpaceOnUse" id="clipPath2">
        <path d="M-185 287 L771 287 L771 782 L-185 782 L-185 287 Z"/>
      </clipPath>
      <clipPath clipPathUnits="userSpaceOnUse" id="clipPath3">
        <path d="M-190 282 L766 282 L766 777 L-190 777 L-190 282 Z"/>
      </clipPath>
    </defs>
    <g fill="white" text-rendering="geometricPrecision" shape-rendering="geometricPrecision" transform="translate(185,-287)" stroke="white">
      <rect x="-185" width="956" height="495" y="287" clip-path="url(#clipPath2)" stroke="none"/>
    </g>
    <g fill="gray" text-rendering="geometricPrecision" shape-rendering="geometricPrecision" transform="matrix(1,0,0,1,185,-287) translate(5,5)" stroke="gray">
      <rect x="-170" y="302.483" clip-path="url(#clipPath3)" width="920.0667" rx="4" ry="4" height="98.5955" stroke="none"/>
    </g>
    <g fill="rgb(245,245,245)" text-rendering="geometricPrecision" shape-rendering="geometricPrecision" transform="matrix(1,0,0,1,185,-287)" stroke="rgb(245,245,245)">
      <rect x="-170" y="302.483" clip-path="url(#clipPath2)" width="920.0667" rx="4" ry="4" height="98.5955" stroke="none"/>
    </g>
    <g font-size="18px" stroke-linecap="butt" transform="matrix(1,0,0,1,185,-287)" text-rendering="geometricPrecision" font-family="sans-serif" shape-rendering="geometricPrecision" font-weight="bold" stroke-miterlimit="1.45">
      <text x="220.068" xml:space="preserve" y="321.191" clip-path="url(#clipPath2)" stroke="none">solph Klassen</text>
    </g>
    <g text-rendering="geometricPrecision" stroke-miterlimit="1.45" stroke-width="2" shape-rendering="geometricPrecision" transform="matrix(1,0,0,1,185,-287)" stroke-linecap="butt">
      <rect x="-170" y="302.483" clip-path="url(#clipPath2)" fill="none" width="920.0667" rx="4" ry="4" height="98.5955"/>
    </g>
    <g fill="rgb(102,0,0)" text-rendering="geometricPrecision" shape-rendering="geometricPrecision" transform="matrix(1,0,0,1,185,-287)" stroke="rgb(102,0,0)">
      <ellipse rx="60" ry="18" clip-path="url(#clipPath2)" cx="248.3185" cy="640" stroke="none"/>
    </g>
    <g stroke-linecap="butt" transform="matrix(1,0,0,1,185,-287)" fill="white" text-rendering="geometricPrecision" font-family="sans-serif" shape-rendering="geometricPrecision" stroke="white" stroke-miterlimit="1.45">
      <text x="224.4503" xml:space="preserve" y="644.1543" clip-path="url(#clipPath2)" stroke="none">Strom 1</text>
      <ellipse rx="60" fill="none" ry="18" clip-path="url(#clipPath2)" cx="248.3185" cy="640"/>
    </g>
    <g fill="rgb(204,204,204)" text-rendering="geometricPrecision" shape-rendering="geometricPrecision" transform="matrix(1,0,0,1,185,-287)" stroke="rgb(204,204,204)">
      <rect x="8.6128" width="132" height="30" y="625" clip-path="url(#clipPath2)" stroke="none"/>
    </g>
    <g text-rendering="geometricPrecision" stroke-miterlimit="1.45" shape-rendering="geometricPrecision" font-family="sans-serif" transform="matrix(1,0,0,1,185,-287)" stroke-linecap="butt">
      <text x="37.895" xml:space="preserve" y="644.1543" clip-path="url(#clipPath2)" stroke="none">KWK-Anlage</text>
      <rect fill="none" x="8.6128" width="132" height="30" y="625" clip-path="url(#clipPath2)"/>
    </g>
    <g fill="rgb(0,51,0)" text-rendering="geometricPrecision" shape-rendering="geometricPrecision" transform="matrix(1,0,0,1,185,-287)" stroke="rgb(0,51,0)">
      <path d="M166.3185 766.9798 L207.3185 736.9798 L289.3185 736.9798 L330.3185 766.9798 Z" fill-rule="evenodd" clip-path="url(#clipPath2)" stroke="none"/>
    </g>
    <g stroke-linecap="butt" transform="matrix(1,0,0,1,185,-287)" fill="white" text-rendering="geometricPrecision" font-family="sans-serif" shape-rendering="geometricPrecision" stroke="white" stroke-miterlimit="1.45">
      <text x="204.8859" xml:space="preserve" y="756.1341" clip-path="url(#clipPath2)" stroke="none">Strombedarf 1</text>
      <path fill="none" d="M166.3185 766.9798 L207.3185 736.9798 L289.3185 736.9798 L330.3185 766.9798 Z" fill-rule="evenodd" clip-path="url(#clipPath2)" stroke="black"/>
    </g>
    <g fill="rgb(102,0,0)" text-rendering="geometricPrecision" shape-rendering="geometricPrecision" transform="matrix(1,0,0,1,185,-287)" stroke="rgb(102,0,0)">
      <ellipse rx="60" ry="18" clip-path="url(#clipPath2)" cx="74.6128" cy="555.0922" stroke="none"/>
    </g>
    <g stroke-linecap="butt" transform="matrix(1,0,0,1,185,-287)" fill="white" text-rendering="geometricPrecision" font-family="sans-serif" shape-rendering="geometricPrecision" stroke="white" stroke-miterlimit="1.45">
      <text x="53.9351" xml:space="preserve" y="559.2465" clip-path="url(#clipPath2)" stroke="none">Erdgas</text>
      <ellipse rx="60" fill="none" ry="18" clip-path="url(#clipPath2)" cx="74.6128" cy="555.0922"/>
    </g>
    <g fill="rgb(255,204,102)" text-rendering="geometricPrecision" shape-rendering="geometricPrecision" transform="matrix(1,0,0,1,185,-287)" stroke="rgb(255,204,102)">
      <path d="M-7.3872 455.1844 L156.6128 455.1844 L115.6128 485.1844 L33.6128 485.1844 Z" fill-rule="evenodd" clip-path="url(#clipPath2)" stroke="none"/>
    </g>
    <g text-rendering="geometricPrecision" stroke-miterlimit="1.45" shape-rendering="geometricPrecision" font-family="sans-serif" transform="matrix(1,0,0,1,185,-287)" stroke-linecap="butt">
      <text x="53.9351" xml:space="preserve" y="474.3387" clip-path="url(#clipPath2)" stroke="none">Erdgas</text>
      <path fill="none" d="M-7.3872 455.1844 L156.6128 455.1844 L115.6128 485.1844 L33.6128 485.1844 Z" clip-path="url(#clipPath2)" fill-rule="evenodd"/>
    </g>
    <g fill="rgb(255,204,102)" text-rendering="geometricPrecision" shape-rendering="geometricPrecision" transform="matrix(1,0,0,1,185,-287)" stroke="rgb(255,204,102)">
      <path d="M166.3185 455.1844 L330.3185 455.1844 L289.3185 485.1844 L207.3185 485.1844 Z" fill-rule="evenodd" clip-path="url(#clipPath2)" stroke="none"/>
    </g>
    <g text-rendering="geometricPrecision" stroke-miterlimit="1.45" shape-rendering="geometricPrecision" font-family="sans-serif" transform="matrix(1,0,0,1,185,-287)" stroke-linecap="butt">
      <text x="216.0568" xml:space="preserve" y="474.3387" clip-path="url(#clipPath2)" stroke="none">PV-System</text>
      <path fill="none" d="M166.3185 455.1844 L330.3185 455.1844 L289.3185 485.1844 L207.3185 485.1844 Z" clip-path="url(#clipPath2)" fill-rule="evenodd"/>
    </g>
    <g fill="rgb(255,204,102)" text-rendering="geometricPrecision" shape-rendering="geometricPrecision" transform="matrix(1,0,0,1,185,-287)" stroke="rgb(255,204,102)">
      <path d="M431.2087 455.1844 L595.2087 455.1844 L554.2087 485.1844 L472.2087 485.1844 Z" fill-rule="evenodd" clip-path="url(#clipPath2)" stroke="none"/>
    </g>
    <g text-rendering="geometricPrecision" stroke-miterlimit="1.45" shape-rendering="geometricPrecision" font-family="sans-serif" transform="matrix(1,0,0,1,185,-287)" stroke-linecap="butt">
      <text x="454.8552" xml:space="preserve" y="474.3387" clip-path="url(#clipPath2)" stroke="none">Windenergieanlage</text>
      <path fill="none" d="M431.2087 455.1844 L595.2087 455.1844 L554.2087 485.1844 L472.2087 485.1844 Z" clip-path="url(#clipPath2)" fill-rule="evenodd"/>
    </g>
    <g fill="rgb(102,0,0)" text-rendering="geometricPrecision" shape-rendering="geometricPrecision" transform="matrix(1,0,0,1,185,-287)" stroke="rgb(102,0,0)">
      <ellipse rx="60" ry="18" clip-path="url(#clipPath2)" cx="513.2088" cy="640" stroke="none"/>
    </g>
    <g stroke-linecap="butt" transform="matrix(1,0,0,1,185,-287)" fill="white" text-rendering="geometricPrecision" font-family="sans-serif" shape-rendering="geometricPrecision" stroke="white" stroke-miterlimit="1.45">
      <text x="489.3406" xml:space="preserve" y="644.1543" clip-path="url(#clipPath2)" stroke="none">Strom 2</text>
      <ellipse rx="60" fill="none" ry="18" clip-path="url(#clipPath2)" cx="513.2088" cy="640"/>
    </g>
    <g fill="rgb(0,51,0)" text-rendering="geometricPrecision" shape-rendering="geometricPrecision" transform="matrix(1,0,0,1,185,-287)" stroke="rgb(0,51,0)">
      <path d="M431.2087 766.9798 L472.2087 736.9798 L554.2087 736.9798 L595.2087 766.9798 Z" fill-rule="evenodd" clip-path="url(#clipPath2)" stroke="none"/>
    </g>
    <g stroke-linecap="butt" transform="matrix(1,0,0,1,185,-287)" fill="white" text-rendering="geometricPrecision" font-family="sans-serif" shape-rendering="geometricPrecision" stroke="white" stroke-miterlimit="1.45">
      <text x="469.7761" xml:space="preserve" y="756.1341" clip-path="url(#clipPath2)" stroke="none">Strombedarf 2</text>
      <path fill="none" d="M431.2087 766.9798 L472.2087 736.9798 L554.2087 736.9798 L595.2087 766.9798 Z" fill-rule="evenodd" clip-path="url(#clipPath2)" stroke="black"/>
    </g>
    <g fill="rgb(204,204,204)" text-rendering="geometricPrecision" shape-rendering="geometricPrecision" transform="matrix(1,0,0,1,185,-287)" stroke="rgb(204,204,204)">
      <rect x="313.2088" width="132" height="30" y="562" clip-path="url(#clipPath2)" stroke="none"/>
    </g>
    <g text-rendering="geometricPrecision" stroke-miterlimit="1.45" shape-rendering="geometricPrecision" font-family="sans-serif" transform="matrix(1,0,0,1,185,-287)" stroke-linecap="butt">
      <text x="340.2732" xml:space="preserve" y="581.1543" clip-path="url(#clipPath2)" stroke="none">Stromleitung</text>
      <rect fill="none" x="313.2088" width="132" height="30" y="562" clip-path="url(#clipPath2)"/>
    </g>
    <g fill="rgb(204,204,204)" text-rendering="geometricPrecision" shape-rendering="geometricPrecision" transform="matrix(1,0,0,1,185,-287)" stroke="rgb(204,204,204)">
      <rect x="313.2088" width="132" height="30" y="682.4899" clip-path="url(#clipPath2)" stroke="none"/>
    </g>
    <g text-rendering="geometricPrecision" stroke-miterlimit="1.45" shape-rendering="geometricPrecision" font-family="sans-serif" transform="matrix(1,0,0,1,185,-287)" stroke-linecap="butt">
      <text x="340.2732" xml:space="preserve" y="701.6442" clip-path="url(#clipPath2)" stroke="none">Stromleitung</text>
      <rect fill="none" x="313.2088" width="132" height="30" y="682.4899" clip-path="url(#clipPath2)"/>
    </g>
    <g fill="rgb(0,34,51)" text-rendering="geometricPrecision" shape-rendering="geometricPrecision" transform="matrix(1,0,0,1,185,-287)" stroke="rgb(0,34,51)">
      <rect x="613.1306" y="625" clip-path="url(#clipPath2)" width="110.202" rx="4" ry="4" height="30" stroke="none"/>
    </g>
    <g text-rendering="geometricPrecision" stroke-miterlimit="1.45" shape-rendering="geometricPrecision" transform="matrix(1,0,0,1,185,-287)" stroke-linecap="butt">
      <rect x="613.1306" y="625" clip-path="url(#clipPath2)" fill="none" width="110.202" rx="4" ry="4" height="30"/>
      <text x="644.217" y="644.1543" clip-path="url(#clipPath2)" fill="white" font-family="sans-serif" stroke="none" xml:space="preserve">Batterie</text>
    </g>
    <g fill="rgb(102,0,0)" text-rendering="geometricPrecision" shape-rendering="geometricPrecision" transform="matrix(1,0,0,1,185,-287)" stroke="rgb(102,0,0)">
      <ellipse rx="60" ry="18" clip-path="url(#clipPath2)" cx="-88" cy="640" stroke="none"/>
    </g>
    <g stroke-linecap="butt" transform="matrix(1,0,0,1,185,-287)" fill="white" text-rendering="geometricPrecision" font-family="sans-serif" shape-rendering="geometricPrecision" stroke="white" stroke-miterlimit="1.45">
      <text x="-109.6123" xml:space="preserve" y="644.1543" clip-path="url(#clipPath2)" stroke="none">Wärme</text>
      <ellipse rx="60" fill="none" ry="18" clip-path="url(#clipPath2)" cx="-88" cy="640"/>
    </g>
    <g fill="rgb(0,51,0)" text-rendering="geometricPrecision" shape-rendering="geometricPrecision" transform="matrix(1,0,0,1,185,-287)" stroke="rgb(0,51,0)">
      <path d="M-170 766.9798 L-129 736.9798 L-47 736.9798 L-6 766.9798 Z" fill-rule="evenodd" clip-path="url(#clipPath2)" stroke="none"/>
    </g>
    <g stroke-linecap="butt" transform="matrix(1,0,0,1,185,-287)" fill="white" text-rendering="geometricPrecision" font-family="sans-serif" shape-rendering="geometricPrecision" stroke="white" stroke-miterlimit="1.45">
      <text x="-129.1768" xml:space="preserve" y="756.1341" clip-path="url(#clipPath2)" stroke="none">Wärmebedarf</text>
      <path fill="none" d="M-170 766.9798 L-129 736.9798 L-47 736.9798 L-6 766.9798 Z" fill-rule="evenodd" clip-path="url(#clipPath2)" stroke="black"/>
    </g>
    <g fill="rgb(102,0,0)" text-rendering="geometricPrecision" shape-rendering="geometricPrecision" transform="matrix(1,0,0,1,185,-287)" stroke="rgb(102,0,0)">
      <ellipse rx="60" ry="18" clip-path="url(#clipPath2)" cx="-88.0781" cy="359.8009" stroke="none"/>
    </g>
    <g stroke-linecap="butt" transform="matrix(1,0,0,1,185,-287)" fill="white" text-rendering="geometricPrecision" font-family="sans-serif" shape-rendering="geometricPrecision" stroke="white" stroke-miterlimit="1.45">
      <text x="-99.123" xml:space="preserve" y="363.9552" clip-path="url(#clipPath2)" stroke="none">Bus</text>
      <ellipse rx="60" fill="none" ry="18" clip-path="url(#clipPath2)" cx="-88.0781" cy="359.8009"/>
    </g>
    <g fill="rgb(255,204,102)" text-rendering="geometricPrecision" shape-rendering="geometricPrecision" transform="matrix(1,0,0,1,185,-287)" stroke="rgb(255,204,102)">
      <path d="M227.8259 344.8009 L391.8259 344.8009 L350.8259 374.8009 L268.8259 374.8009 Z" fill-rule="evenodd" clip-path="url(#clipPath2)" stroke="none"/>
    </g>
    <g text-rendering="geometricPrecision" stroke-miterlimit="1.45" shape-rendering="geometricPrecision" font-family="sans-serif" transform="matrix(1,0,0,1,185,-287)" stroke-linecap="butt">
      <text x="289.0867" xml:space="preserve" y="363.9552" clip-path="url(#clipPath2)" stroke="none">Source</text>
      <path fill="none" d="M227.8259 344.8009 L391.8259 344.8009 L350.8259 374.8009 L268.8259 374.8009 Z" clip-path="url(#clipPath2)" fill-rule="evenodd"/>
    </g>
    <g fill="rgb(204,204,204)" text-rendering="geometricPrecision" shape-rendering="geometricPrecision" transform="matrix(1,0,0,1,185,-287)" stroke="rgb(204,204,204)">
      <rect x="437.7779" width="132" height="30" y="344.8009" clip-path="url(#clipPath2)" stroke="none"/>
    </g>
    <g text-rendering="geometricPrecision" stroke-miterlimit="1.45" shape-rendering="geometricPrecision" font-family="sans-serif" transform="matrix(1,0,0,1,185,-287)" stroke-linecap="butt">
      <text x="466.7877" xml:space="preserve" y="363.9552" clip-path="url(#clipPath2)" stroke="none">Transformer</text>
      <rect fill="none" x="437.7779" width="132" height="30" y="344.8009" clip-path="url(#clipPath2)"/>
    </g>
    <g fill="rgb(0,34,51)" text-rendering="geometricPrecision" shape-rendering="geometricPrecision" transform="matrix(1,0,0,1,185,-287)" stroke="rgb(0,34,51)">
      <rect x="615.73" y="344.8009" clip-path="url(#clipPath2)" width="110.202" rx="4" ry="4" height="30" stroke="none"/>
    </g>
    <g text-rendering="geometricPrecision" stroke-miterlimit="1.45" shape-rendering="geometricPrecision" transform="matrix(1,0,0,1,185,-287)" stroke-linecap="butt">
      <rect x="615.73" y="344.8009" clip-path="url(#clipPath2)" fill="none" width="110.202" rx="4" ry="4" height="30"/>
      <text x="624.0878" y="363.9552" clip-path="url(#clipPath2)" fill="white" font-family="sans-serif" stroke="none" xml:space="preserve">GenericStorage</text>
    </g>
    <g fill="rgb(0,51,0)" text-rendering="geometricPrecision" shape-rendering="geometricPrecision" transform="matrix(1,0,0,1,185,-287)" stroke="rgb(0,51,0)">
      <path d="M17.8739 374.8009 L58.8739 344.8009 L140.8739 344.8009 L181.8739 374.8009 Z" fill-rule="evenodd" clip-path="url(#clipPath2)" stroke="none"/>
    </g>
    <g stroke-linecap="butt" transform="matrix(1,0,0,1,185,-287)" fill="white" text-rendering="geometricPrecision" font-family="sans-serif" shape-rendering="geometricPrecision" stroke="white" stroke-miterlimit="1.45">
      <text x="87.121" xml:space="preserve" y="363.9552" clip-path="url(#clipPath2)" stroke="none">Sink</text>
      <path fill="none" d="M17.8739 374.8009 L58.8739 344.8009 L140.8739 344.8009 L181.8739 374.8009 Z" fill-rule="evenodd" clip-path="url(#clipPath2)" stroke="black"/>
      <path fill="none" d="M140.6128 640 L180.3185 640" clip-path="url(#clipPath2)" stroke="black"/>
      <path fill="black" d="M188.3185 640 L176.3185 635 L179.3185 640 L176.3185 645 Z" clip-path="url(#clipPath2)" stroke="none"/>
      <path fill="none" d="M248.3185 658 L248.3185 728.9742" clip-path="url(#clipPath2)" stroke="black"/>
      <path fill="black" d="M248.3185 736.9742 L253.3185 724.9742 L248.3185 727.9742 L243.3185 724.9742 Z" clip-path="url(#clipPath2)" stroke="none"/>
      <path fill="none" d="M74.6128 573.0922 L74.6128 617" clip-path="url(#clipPath2)" stroke="black"/>
      <path fill="black" d="M74.6128 625 L79.6128 613 L74.6128 616 L69.6128 613 Z" clip-path="url(#clipPath2)" stroke="none"/>
      <path fill="none" d="M74.6128 485.151 L74.6128 529.0922" clip-path="url(#clipPath2)" stroke="black"/>
      <path fill="black" d="M74.6128 537.0922 L79.6128 525.0922 L74.6128 528.0922 L69.6128 525.0922 Z" clip-path="url(#clipPath2)" stroke="none"/>
      <path fill="none" d="M248.3185 485.151 L248.3185 614" clip-path="url(#clipPath2)" stroke="black"/>
      <path fill="black" d="M248.3185 622 L253.3185 610 L248.3185 613 L243.3185 610 Z" clip-path="url(#clipPath2)" stroke="none"/>
      <path fill="none" d="M513.2087 485.151 L513.2087 614" clip-path="url(#clipPath2)" stroke="black"/>
      <path fill="black" d="M513.2087 622 L518.2087 610 L513.2087 613 L508.2087 610 Z" clip-path="url(#clipPath2)" stroke="none"/>
      <path fill="none" d="M513.2087 658 L513.2087 728.9742" clip-path="url(#clipPath2)" stroke="black"/>
      <path fill="black" d="M513.2087 736.9742 L518.2087 724.9742 L513.2087 727.9742 L508.2087 724.9742 Z" clip-path="url(#clipPath2)" stroke="none"/>
      <path fill="none" d="M480.9339 624.826 L418.3533 595.4037" clip-path="url(#clipPath2)" stroke="black"/>
      <path fill="black" d="M411.1135 592 L419.8459 601.6305 L419.2583 595.8292 L424.1006 592.5807 Z" clip-path="url(#clipPath2)" stroke="none"/>
      <path fill="none" d="M348.0444 592 L287.2642 621.2547" clip-path="url(#clipPath2)" stroke="black"/>
      <path fill="black" d="M280.0557 624.7243 L293.0369 624.0252 L288.1652 620.821 L288.6999 615.0146 Z" clip-path="url(#clipPath2)" stroke="none"/>
      <path fill="none" d="M282.1595 654.8637 L337.7328 679.2728" clip-path="url(#clipPath2)" stroke="black"/>
      <path fill="black" d="M345.0575 682.4899 L336.0813 673.0863 L336.8173 678.8706 L332.0598 682.2421 Z" clip-path="url(#clipPath2)" stroke="none"/>
      <path fill="none" d="M414.1714 682.4899 L471.4737 657.9055" clip-path="url(#clipPath2)" stroke="black"/>
      <path fill="black" d="M478.8257 654.7513 L465.8264 654.8876 L470.5547 658.2998 L469.7691 664.0776 Z" clip-path="url(#clipPath2)" stroke="none"/>
      <path fill="none" d="M573.2087 640 L605.1573 640" clip-path="url(#clipPath2)" stroke="black"/>
      <path fill="black" d="M613.1573 640 L601.1573 635 L604.1573 640 L601.1573 645 Z" clip-path="url(#clipPath2)" stroke="none"/>
      <path fill="none" d="M613.1637 640 L581.2087 640" clip-path="url(#clipPath2)" stroke="black"/>
      <path fill="black" d="M573.2087 640 L585.2087 645 L582.2087 640 L585.2087 635 Z" clip-path="url(#clipPath2)" stroke="none"/>
      <path fill="none" d="M8.6128 640 L-20 640" clip-path="url(#clipPath2)" stroke="black"/>
      <path fill="black" d="M-28 640 L-16 645 L-19 640 L-16 635 Z" clip-path="url(#clipPath2)" stroke="none"/>
      <path fill="none" d="M-88 658 L-88 728.9742" clip-path="url(#clipPath2)" stroke="black"/>
      <path fill="black" d="M-88 736.9742 L-83 724.9742 L-88 727.9742 L-93 724.9742 Z" clip-path="url(#clipPath2)" stroke="none"/>
    </g>
  </g>
</svg>
