<!-- Created with Inkscape (http://www.inkscape.org/) -->
<svg xmlns:rdf="http://www.w3.org/1999/02/22-rdf-syntax-ns#" xmlns="http://www.w3.org/2000/svg" xml:space="preserve" viewBox="0 0 1728 864" version="1.1" xmlns:cc="http://creativecommons.org/ns#" xmlns:dc="http://purl.org/dc/elements/1.1/"><metadata><rdf:RDF><cc:Work rdf:about=""><dc:format>image/svg+xml</dc:format><dc:type rdf:resource="http://purl.org/dc/dcmitype/StillImage"/><dc:title/></cc:Work></rdf:RDF></metadata><defs><clipPath id="clipPath22" clipPathUnits="userSpaceOnUse"><path d="m116.64 64.8h921.46v570.24h-921.46z"/></clipPath><clipPath id="clipPath32" clipPathUnits="userSpaceOnUse"><path d="m116.64 64.8h921.46v570.24h-921.46z"/></clipPath><clipPath id="clipPath42" clipPathUnits="userSpaceOnUse"><path d="m116.64 64.8h921.46v570.24h-921.46z"/></clipPath><clipPath id="clipPath52" clipPathUnits="userSpaceOnUse"><path d="m116.64 64.8h921.46v570.24h-921.46z"/></clipPath><clipPath id="clipPath62" clipPathUnits="userSpaceOnUse"><path d="m116.64 64.8h921.46v570.24h-921.46z"/></clipPath><clipPath id="clipPath72" clipPathUnits="userSpaceOnUse"><path d="m116.64 64.8h921.46v570.24h-921.46z"/></clipPath><clipPath id="clipPath82" clipPathUnits="userSpaceOnUse"><path d="m116.64 64.8h921.46v570.24h-921.46z"/></clipPath><clipPath id="clipPath92" clipPathUnits="userSpaceOnUse"><path d="m116.64 64.8h921.46v570.24h-921.46z"/></clipPath><clipPath id="clipPath102" clipPathUnits="userSpaceOnUse"><path d="m116.64 64.8h921.46v570.24h-921.46z"/></clipPath><clipPath id="clipPath112" clipPathUnits="userSpaceOnUse"><path d="m116.64 64.8h921.46v570.24h-921.46z"/></clipPath><clipPath id="clipPath122" clipPathUnits="userSpaceOnUse"><path d="m116.64 64.8h921.46v570.24h-921.46z"/></clipPath><clipPath id="clipPath132" clipPathUnits="userSpaceOnUse"><path d="m116.64 64.8h921.46v570.24h-921.46z"/></clipPath><clipPath id="clipPath142" clipPathUnits="userSpaceOnUse"><path d="m116.64 64.8h921.46v570.24h-921.46z"/></clipPath><clipPath id="clipPath152" clipPathUnits="userSpaceOnUse"><path d="m116.64 64.8h921.46v570.24h-921.46z"/></clipPath><clipPath id="clipPath162" clipPathUnits="userSpaceOnUse"><path d="m116.64 64.8h921.46v570.24h-921.46z"/></clipPath><clipPath id="clipPath172" clipPathUnits="userSpaceOnUse"><path d="m116.64 64.8h921.46v570.24h-921.46z"/></clipPath><clipPath id="clipPath182" clipPathUnits="userSpaceOnUse"><path d="m116.64 64.8h921.46v570.24h-921.46z"/></clipPath><clipPath id="clipPath192" clipPathUnits="userSpaceOnUse"><path d="m116.64 64.8h921.46v570.24h-921.46z"/></clipPath><clipPath id="clipPath202" clipPathUnits="userSpaceOnUse"><path d="m116.64 64.8h921.46v570.24h-921.46z"/></clipPath><clipPath id="clipPath212" clipPathUnits="userSpaceOnUse"><path d="m116.64 64.8h921.46v570.24h-921.46z"/></clipPath><clipPath id="clipPath222" clipPathUnits="userSpaceOnUse"><path d="m116.64 64.8h921.46v570.24h-921.46z"/></clipPath><clipPath id="clipPath232" clipPathUnits="userSpaceOnUse"><path d="m116.64 64.8h921.46v570.24h-921.46z"/></clipPath><clipPath id="clipPath242" clipPathUnits="userSpaceOnUse"><path d="m116.64 64.8h921.46v570.24h-921.46z"/></clipPath><clipPath id="clipPath252" clipPathUnits="userSpaceOnUse"><path d="m116.64 64.8h921.46v570.24h-921.46z"/></clipPath><clipPath id="clipPath262" clipPathUnits="userSpaceOnUse"><path d="m116.64 64.8h921.46v570.24h-921.46z"/></clipPath><clipPath id="clipPath272" clipPathUnits="userSpaceOnUse"><path d="m116.64 64.8h921.46v570.24h-921.46z"/></clipPath><clipPath id="clipPath282" clipPathUnits="userSpaceOnUse"><path d="m116.64 64.8h921.46v570.24h-921.46z"/></clipPath><clipPath id="clipPath292" clipPathUnits="userSpaceOnUse"><path d="m116.64 64.8h921.46v570.24h-921.46z"/></clipPath><clipPath id="clipPath302" clipPathUnits="userSpaceOnUse"><path d="m116.64 64.8h921.46v570.24h-921.46z"/></clipPath><clipPath id="clipPath312" clipPathUnits="userSpaceOnUse"><path d="m116.64 64.8h921.46v570.24h-921.46z"/></clipPath><clipPath id="clipPath322" clipPathUnits="userSpaceOnUse"><path d="m116.64 64.8h921.46v570.24h-921.46z"/></clipPath><clipPath id="clipPath332" clipPathUnits="userSpaceOnUse"><path d="m116.64 64.8h921.46v570.24h-921.46z"/></clipPath><clipPath id="clipPath342" clipPathUnits="userSpaceOnUse"><path d="m116.64 64.8h921.46v570.24h-921.46z"/></clipPath><clipPath id="clipPath352" clipPathUnits="userSpaceOnUse"><path d="m116.64 64.8h921.46v570.24h-921.46z"/></clipPath><clipPath id="clipPath362" clipPathUnits="userSpaceOnUse"><path d="m116.64 64.8h921.46v570.24h-921.46z"/></clipPath><clipPath id="clipPath372" clipPathUnits="userSpaceOnUse"><path d="m116.64 64.8h921.46v570.24h-921.46z"/></clipPath><clipPath id="clipPath382" clipPathUnits="userSpaceOnUse"><path d="m116.64 64.8h921.46v570.24h-921.46z"/></clipPath><clipPath id="clipPath392" clipPathUnits="userSpaceOnUse"><path d="m116.64 64.8h921.46v570.24h-921.46z"/></clipPath><clipPath id="clipPath402" clipPathUnits="userSpaceOnUse"><path d="m116.64 64.8h921.46v570.24h-921.46z"/></clipPath><clipPath id="clipPath412" clipPathUnits="userSpaceOnUse"><path d="m116.64 64.8h921.46v570.24h-921.46z"/></clipPath><clipPath id="clipPath422" clipPathUnits="userSpaceOnUse"><path d="m116.64 64.8h921.46v570.24h-921.46z"/></clipPath><clipPath id="clipPath432" clipPathUnits="userSpaceOnUse"><path d="m116.64 64.8h921.46v570.24h-921.46z"/></clipPath><clipPath id="clipPath442" clipPathUnits="userSpaceOnUse"><path d="m116.64 64.8h921.46v570.24h-921.46z"/></clipPath><clipPath id="clipPath452" clipPathUnits="userSpaceOnUse"><path d="m116.64 64.8h921.46v570.24h-921.46z"/></clipPath><clipPath id="clipPath462" clipPathUnits="userSpaceOnUse"><path d="m116.64 64.8h921.46v570.24h-921.46z"/></clipPath><clipPath id="clipPath472" clipPathUnits="userSpaceOnUse"><path d="m116.64 64.8h921.46v570.24h-921.46z"/></clipPath><clipPath id="clipPath482" clipPathUnits="userSpaceOnUse"><path d="m116.64 64.8h921.46v570.24h-921.46z"/></clipPath><clipPath id="clipPath492" clipPathUnits="userSpaceOnUse"><path d="m116.64 64.8h921.46v570.24h-921.46z"/></clipPath><clipPath id="clipPath502" clipPathUnits="userSpaceOnUse"><path d="m116.64 64.8h921.46v570.24h-921.46z"/></clipPath><clipPath id="clipPath512" clipPathUnits="userSpaceOnUse"><path d="m116.64 64.8h921.46v570.24h-921.46z"/></clipPath><clipPath id="clipPath522" clipPathUnits="userSpaceOnUse"><path d="m116.64 64.8h921.46v570.24h-921.46z"/></clipPath><clipPath id="clipPath532" clipPathUnits="userSpaceOnUse"><path d="m116.64 64.8h921.46v570.24h-921.46z"/></clipPath><clipPath id="clipPath542" clipPathUnits="userSpaceOnUse"><path d="m116.64 64.8h921.46v570.24h-921.46z"/></clipPath><clipPath id="clipPath552" clipPathUnits="userSpaceOnUse"><path d="m116.64 64.8h921.46v570.24h-921.46z"/></clipPath><clipPath id="clipPath562" clipPathUnits="userSpaceOnUse"><path d="m116.64 64.8h921.46v570.24h-921.46z"/></clipPath><clipPath id="clipPath572" clipPathUnits="userSpaceOnUse"><path d="m116.64 64.8h921.46v570.24h-921.46z"/></clipPath><clipPath id="clipPath582" clipPathUnits="userSpaceOnUse"><path d="m116.64 64.8h921.46v570.24h-921.46z"/></clipPath><clipPath id="clipPath592" clipPathUnits="userSpaceOnUse"><path d="m116.64 64.8h921.46v570.24h-921.46z"/></clipPath><clipPath id="clipPath602" clipPathUnits="userSpaceOnUse"><path d="m116.64 64.8h921.46v570.24h-921.46z"/></clipPath><clipPath id="clipPath612" clipPathUnits="userSpaceOnUse"><path d="m116.64 64.8h921.46v570.24h-921.46z"/></clipPath><clipPath id="clipPath622" clipPathUnits="userSpaceOnUse"><path d="m116.64 64.8h921.46v570.24h-921.46z"/></clipPath><clipPath id="clipPath632" clipPathUnits="userSpaceOnUse"><path d="m116.64 64.8h921.46v570.24h-921.46z"/></clipPath><clipPath id="clipPath642" clipPathUnits="userSpaceOnUse"><path d="m116.64 64.8h921.46v570.24h-921.46z"/></clipPath><clipPath id="clipPath652" clipPathUnits="userSpaceOnUse"><path d="m116.64 64.8h921.46v570.24h-921.46z"/></clipPath><clipPath id="clipPath662" clipPathUnits="userSpaceOnUse"><path d="m116.64 64.8h921.46v570.24h-921.46z"/></clipPath><clipPath id="clipPath672" clipPathUnits="userSpaceOnUse"><path d="m116.64 64.8h921.46v570.24h-921.46z"/></clipPath><clipPath id="clipPath682" clipPathUnits="userSpaceOnUse"><path d="m116.64 64.8h921.46v570.24h-921.46z"/></clipPath><clipPath id="clipPath692" clipPathUnits="userSpaceOnUse"><path d="m116.64 64.8h921.46v570.24h-921.46z"/></clipPath><clipPath id="clipPath702" clipPathUnits="userSpaceOnUse"><path d="m116.64 64.8h921.46v570.24h-921.46z"/></clipPath><clipPath id="clipPath712" clipPathUnits="userSpaceOnUse"><path d="m116.64 64.8h921.46v570.24h-921.46z"/></clipPath><clipPath id="clipPath722" clipPathUnits="userSpaceOnUse"><path d="m116.64 64.8h921.46v570.24h-921.46z"/></clipPath><clipPath id="clipPath732" clipPathUnits="userSpaceOnUse"><path d="m116.64 64.8h921.46v570.24h-921.46z"/></clipPath><clipPath id="clipPath742" clipPathUnits="userSpaceOnUse"><path d="m116.64 64.8h921.46v570.24h-921.46z"/></clipPath><clipPath id="clipPath752" clipPathUnits="userSpaceOnUse"><path d="m116.64 64.8h921.46v570.24h-921.46z"/></clipPath><clipPath id="clipPath762" clipPathUnits="userSpaceOnUse"><path d="m116.64 64.8h921.46v570.24h-921.46z"/></clipPath><clipPath id="clipPath772" clipPathUnits="userSpaceOnUse"><path d="m116.64 64.8h921.46v570.24h-921.46z"/></clipPath><clipPath id="clipPath782" clipPathUnits="userSpaceOnUse"><path d="m116.64 64.8h921.46v570.24h-921.46z"/></clipPath><clipPath id="clipPath792" clipPathUnits="userSpaceOnUse"><path d="m116.64 64.8h921.46v570.24h-921.46z"/></clipPath><clipPath id="clipPath802" clipPathUnits="userSpaceOnUse"><path d="m116.64 64.8h921.46v570.24h-921.46z"/></clipPath><clipPath id="clipPath812" clipPathUnits="userSpaceOnUse"><path d="m116.64 64.8h921.46v570.24h-921.46z"/></clipPath><clipPath id="clipPath822" clipPathUnits="userSpaceOnUse"><path d="m116.64 64.8h921.46v570.24h-921.46z"/></clipPath><clipPath id="clipPath832" clipPathUnits="userSpaceOnUse"><path d="m116.64 64.8h921.46v570.24h-921.46z"/></clipPath><clipPath id="clipPath842" clipPathUnits="userSpaceOnUse"><path d="m116.64 64.8h921.46v570.24h-921.46z"/></clipPath><clipPath id="clipPath852" clipPathUnits="userSpaceOnUse"><path d="m116.64 64.8h921.46v570.24h-921.46z"/></clipPath><clipPath id="clipPath862" clipPathUnits="userSpaceOnUse"><path d="m116.64 64.8h921.46v570.24h-921.46z"/></clipPath><clipPath id="clipPath872" clipPathUnits="userSpaceOnUse"><path d="m116.64 64.8h921.46v570.24h-921.46z"/></clipPath><clipPath id="clipPath882" clipPathUnits="userSpaceOnUse"><path d="m116.64 64.8h921.46v570.24h-921.46z"/></clipPath><clipPath id="clipPath892" clipPathUnits="userSpaceOnUse"><path d="m116.64 64.8h921.46v570.24h-921.46z"/></clipPath><clipPath id="clipPath902" clipPathUnits="userSpaceOnUse"><path d="m116.64 64.8h921.46v570.24h-921.46z"/></clipPath><clipPath id="clipPath912" clipPathUnits="userSpaceOnUse"><path d="m116.64 64.8h921.46v570.24h-921.46z"/></clipPath><clipPath id="clipPath922" clipPathUnits="userSpaceOnUse"><path d="m116.64 64.8h921.46v570.24h-921.46z"/></clipPath><clipPath id="clipPath932" clipPathUnits="userSpaceOnUse"><path d="m116.64 64.8h921.46v570.24h-921.46z"/></clipPath><clipPath id="clipPath942" clipPathUnits="userSpaceOnUse"><path d="m116.64 64.8h921.46v570.24h-921.46z"/></clipPath><clipPath id="clipPath952" clipPathUnits="userSpaceOnUse"><path d="m116.64 64.8h921.46v570.24h-921.46z"/></clipPath><clipPath id="clipPath962" clipPathUnits="userSpaceOnUse"><path d="m116.64 64.8h921.46v570.24h-921.46z"/></clipPath><clipPath id="clipPath972" clipPathUnits="userSpaceOnUse"><path d="m116.64 64.8h921.46v570.24h-921.46z"/></clipPath><clipPath id="clipPath982" clipPathUnits="userSpaceOnUse"><path d="m116.64 64.8h921.46v570.24h-921.46z"/></clipPath><clipPath id="clipPath992" clipPathUnits="userSpaceOnUse"><path d="m116.64 64.8h921.46v570.24h-921.46z"/></clipPath><clipPath id="clipPath1002" clipPathUnits="userSpaceOnUse"><path d="m116.64 64.8h921.46v570.24h-921.46z"/></clipPath><clipPath id="clipPath1012" clipPathUnits="userSpaceOnUse"><path d="m116.64 64.8h921.46v570.24h-921.46z"/></clipPath><clipPath id="clipPath1022" clipPathUnits="userSpaceOnUse"><path d="m116.64 64.8h921.46v570.24h-921.46z"/></clipPath><clipPath id="clipPath1032" clipPathUnits="userSpaceOnUse"><path d="m116.64 64.8h921.46v570.24h-921.46z"/></clipPath><clipPath id="clipPath1160" clipPathUnits="userSpaceOnUse"><path d="m116.64 64.8h921.46v570.24h-921.46z"/></clipPath><clipPath id="clipPath1170" clipPathUnits="userSpaceOnUse"><path d="m-7.5711-7.5711h15.142v15.142h-15.142z"/></clipPath><clipPath id="clipPath1182" clipPathUnits="userSpaceOnUse"><path d="m-7.5711-7.5711h15.142v15.142h-15.142z"/></clipPath><clipPath id="clipPath1194" clipPathUnits="userSpaceOnUse"><path d="m-7.5711-7.5711h15.142v15.142h-15.142z"/></clipPath><clipPath id="clipPath1206" clipPathUnits="userSpaceOnUse"><path d="m-7.5711-7.5711h15.142v15.142h-15.142z"/></clipPath><clipPath id="clipPath1218" clipPathUnits="userSpaceOnUse"><path d="m-7.5711-7.5711h15.142v15.142h-15.142z"/></clipPath><clipPath id="clipPath1230" clipPathUnits="userSpaceOnUse"><path d="m-7.5711-7.5711h15.142v15.142h-15.142z"/></clipPath><clipPath id="clipPath1242" clipPathUnits="userSpaceOnUse"><path d="m-7.5711-7.5711h15.142v15.142h-15.142z"/></clipPath><clipPath id="clipPath1254" clipPathUnits="userSpaceOnUse"><path d="m-7.5711-7.5711h15.142v15.142h-15.142z"/></clipPath><clipPath id="clipPath1266" clipPathUnits="userSpaceOnUse"><path d="m-7.5711-7.5711h15.142v15.142h-15.142z"/></clipPath><clipPath id="clipPath1278" clipPathUnits="userSpaceOnUse"><path d="m-7.5711-7.5711h15.142v15.142h-15.142z"/></clipPath><clipPath id="clipPath1290" clipPathUnits="userSpaceOnUse"><path d="m-7.5711-7.5711h15.142v15.142h-15.142z"/></clipPath><clipPath id="clipPath1302" clipPathUnits="userSpaceOnUse"><path d="m-7.5711-7.5711h15.142v15.142h-15.142z"/></clipPath><clipPath id="clipPath1314" clipPathUnits="userSpaceOnUse"><path d="m-7.5711-7.5711h15.142v15.142h-15.142z"/></clipPath><clipPath id="clipPath1326" clipPathUnits="userSpaceOnUse"><path d="m-7.5711-7.5711h15.142v15.142h-15.142z"/></clipPath><clipPath id="clipPath1338" clipPathUnits="userSpaceOnUse"><path d="m-7.5711-7.5711h15.142v15.142h-15.142z"/></clipPath><clipPath id="clipPath1350" clipPathUnits="userSpaceOnUse"><path d="m-7.5711-7.5711h15.142v15.142h-15.142z"/></clipPath><clipPath id="clipPath1362" clipPathUnits="userSpaceOnUse"><path d="m-7.5711-7.5711h15.142v15.142h-15.142z"/></clipPath><clipPath id="clipPath1372" clipPathUnits="userSpaceOnUse"><path d="m116.64 64.8h921.46v570.24h-921.46z"/></clipPath><clipPath id="clipPath1382" clipPathUnits="userSpaceOnUse"><path d="m-7.5711-7.5711h15.142v15.142h-15.142z"/></clipPath><clipPath id="clipPath1394" clipPathUnits="userSpaceOnUse"><path d="m-7.5711-7.5711h15.142v15.142h-15.142z"/></clipPath><clipPath id="clipPath1406" clipPathUnits="userSpaceOnUse"><path d="m-7.5711-7.5711h15.142v15.142h-15.142z"/></clipPath><clipPath id="clipPath1418" clipPathUnits="userSpaceOnUse"><path d="m-7.5711-7.5711h15.142v15.142h-15.142z"/></clipPath><clipPath id="clipPath1430" clipPathUnits="userSpaceOnUse"><path d="m-7.5711-7.5711h15.142v15.142h-15.142z"/></clipPath><clipPath id="clipPath1442" clipPathUnits="userSpaceOnUse"><path d="m-7.5711-7.5711h15.142v15.142h-15.142z"/></clipPath><clipPath id="clipPath1454" clipPathUnits="userSpaceOnUse"><path d="m-7.5711-7.5711h15.142v15.142h-15.142z"/></clipPath><clipPath id="clipPath1466" clipPathUnits="userSpaceOnUse"><path d="m-7.5711-7.5711h15.142v15.142h-15.142z"/></clipPath><clipPath id="clipPath1478" clipPathUnits="userSpaceOnUse"><path d="m-7.5711-7.5711h15.142v15.142h-15.142z"/></clipPath><clipPath id="clipPath1490" clipPathUnits="userSpaceOnUse"><path d="m-7.5711-7.5711h15.142v15.142h-15.142z"/></clipPath><clipPath id="clipPath1502" clipPathUnits="userSpaceOnUse"><path d="m-7.5711-7.5711h15.142v15.142h-15.142z"/></clipPath><clipPath id="clipPath1514" clipPathUnits="userSpaceOnUse"><path d="m-7.5711-7.5711h15.142v15.142h-15.142z"/></clipPath><clipPath id="clipPath1526" clipPathUnits="userSpaceOnUse"><path d="m-7.5711-7.5711h15.142v15.142h-15.142z"/></clipPath><clipPath id="clipPath1538" clipPathUnits="userSpaceOnUse"><path d="m-7.5711-7.5711h15.142v15.142h-15.142z"/></clipPath><clipPath id="clipPath1550" clipPathUnits="userSpaceOnUse"><path d="m-7.5711-7.5711h15.142v15.142h-15.142z"/></clipPath><clipPath id="clipPath1562" clipPathUnits="userSpaceOnUse"><path d="m-7.5711-7.5711h15.142v15.142h-15.142z"/></clipPath><clipPath id="clipPath1574" clipPathUnits="userSpaceOnUse"><path d="m-7.5711-7.5711h15.142v15.142h-15.142z"/></clipPath></defs><g transform="matrix(1.3333 0 0 -1.3333 0 864)"><path d="m0 0h1296v648h-1296z" fill="#fff"/><path d="m116.64 64.8h921.46v570.24h-921.46z" fill="#fff"/><g clip-path="url(#clipPath22)"><path d="m130.19 64.8h7.7433v322.69h-7.7433z" fill="#fff"/></g><g clip-path="url(#clipPath32)"><path d="m184.39 64.8h7.7433v365.92h-7.7433z" fill="#fff"/></g><g clip-path="url(#clipPath42)"><path d="m238.6 64.8h7.7433v350.86h-7.7433z" fill="#fff"/></g><g clip-path="url(#clipPath52)"><path d="m292.8 64.8h7.7433v357.81h-7.7433z" fill="#fff"/></g><g clip-path="url(#clipPath62)"><path d="m347 64.8h7.7433v350.09h-7.74z" fill="#fff"/></g><g clip-path="url(#clipPath72)"><path d="m401.21 64.8h7.7433v418.41h-7.7433z" fill="#fff"/></g><g clip-path="url(#clipPath82)"><path d="m455.41 64.8h7.7433v362.06h-7.7433z" fill="#fff"/></g><g clip-path="url(#clipPath92)"><path d="m509.61 64.8h7.7433v385.6h-7.7433z" fill="#fff"/></g><g clip-path="url(#clipPath102)"><path d="m563.82 64.8h7.7433v377.88h-7.7433z" fill="#fff"/></g><g clip-path="url(#clipPath112)"><path d="m618.02 64.8h7.7433v367.07h-7.7433z" fill="#fff"/></g><g clip-path="url(#clipPath122)"><path d="m672.22 64.8h7.7433v372.09h-7.7433z" fill="#fff"/></g><g clip-path="url(#clipPath132)"><path d="m726.43 64.8h7.7433v377.5h-7.7433z" fill="#fff"/></g><g clip-path="url(#clipPath142)"><path d="m780.63 64.8h7.7433v378.27h-7.7433z" fill="#fff"/></g><g clip-path="url(#clipPath152)"><path d="m834.83 64.8h7.7433v381.74h-7.7433z" fill="#fff"/></g><g clip-path="url(#clipPath162)"><path d="m889.04 64.8h7.7433v364.76h-7.7433z" fill="#fff"/></g><g clip-path="url(#clipPath172)"><path d="m943.24 64.8h7.7433v360.9h-7.7433z" fill="#fff"/></g><g clip-path="url(#clipPath182)"><path d="m997.44 64.8h7.7434v361.29h-7.7434z" fill="#fff"/></g><g clip-path="url(#clipPath192)"><path d="m130.19 387.49h7.7433v61.758h-7.7433z" fill="#008000"/></g><g clip-path="url(#clipPath202)"><path d="m184.39 430.72h7.7433v54.038h-7.7433z" fill="#008000"/></g><g clip-path="url(#clipPath212)"><path d="m238.6 415.66h7.7433v53.652h-7.7433z" fill="#008000"/></g><g clip-path="url(#clipPath222)"><path d="m292.8 422.61h7.7433v44.389h-7.7433z" fill="#008000"/></g><g clip-path="url(#clipPath232)"><path d="m347 414.89h7.7433v48.635h-7.74z" fill="#008000"/></g><g clip-path="url(#clipPath242)"><path d="m401.21 483.21h7.7433v43.617h-7.7433z" fill="#008000"/></g><g clip-path="url(#clipPath252)"><path d="m455.41 426.86h7.7433v48.635h-7.7433z" fill="#008000"/></g><g clip-path="url(#clipPath262)"><path d="m509.61 450.4h7.7433v39.757h-7.7433z" fill="#008000"/></g><g clip-path="url(#clipPath272)"><path d="m563.82 442.68h7.7433v50.564h-7.7433z" fill="#008000"/></g><g clip-path="url(#clipPath282)"><path d="m618.02 431.87h7.7433v52.494h-7.7433z" fill="#008000"/></g><g clip-path="url(#clipPath292)"><path d="m672.22 436.89h7.7433v45.933h-7.7433z" fill="#008000"/></g><g clip-path="url(#clipPath302)"><path d="m726.43 442.3h7.7433v47.863h-7.7433z" fill="#008000"/></g><g clip-path="url(#clipPath312)"><path d="m780.63 443.07h7.7433v33.195h-7.7433z" fill="#008000"/></g><g clip-path="url(#clipPath322)"><path d="m834.83 446.54h7.7433v55.968h-7.7433z" fill="#008000"/></g><g clip-path="url(#clipPath332)"><path d="m889.04 429.56h7.7433v58.67h-7.7433z" fill="#008000"/></g><g clip-path="url(#clipPath342)"><path d="m943.24 425.7h7.7433v43.231h-7.7433z" fill="#008000"/></g><g clip-path="url(#clipPath352)"><path d="m997.44 426.09h7.7434v53.652h-7.7434z" fill="#008000"/></g><g clip-path="url(#clipPath362)"><path d="m130.19 449.24h7.7433v84.917h-7.7433z" fill="#008000"/></g><g clip-path="url(#clipPath372)"><path d="m184.39 484.76h7.7433v37.055h-7.7433z" fill="#008000"/></g><g clip-path="url(#clipPath382)"><path d="m238.6 469.32h7.7433v72.18h-7.7433z" fill="#008000"/></g><g clip-path="url(#clipPath392)"><path d="m292.8 467h7.7433v59.442h-7.7433z" fill="#008000"/></g><g clip-path="url(#clipPath402)"><path d="m347 463.53h7.7433v76.04h-7.74z" fill="#008000"/></g><g clip-path="url(#clipPath412)"><path d="m401.21 526.83h7.7433v56.354h-7.7433z" fill="#008000"/></g><g clip-path="url(#clipPath422)"><path d="m455.41 475.49h7.7433v74.496h-7.7433z" fill="#008000"/></g><g clip-path="url(#clipPath432)"><path d="m509.61 490.16h7.7433v46.705h-7.7433z" fill="#008000"/></g><g clip-path="url(#clipPath442)"><path d="m563.82 493.25h7.7433v114.64h-7.7433z" fill="#008000"/></g><g clip-path="url(#clipPath452)"><path d="m618.02 484.37h7.7433v92.251h-7.7433z" fill="#008000"/></g><g clip-path="url(#clipPath462)"><path d="m672.22 482.83h7.7433v67.162h-7.7433z" fill="#008000"/></g><g clip-path="url(#clipPath472)"><path d="m726.43 490.16h7.7433v54.038h-7.7433z" fill="#008000"/></g><g clip-path="url(#clipPath482)"><path d="m780.63 476.26h7.7433v41.687h-7.7433z" fill="#008000"/></g><g clip-path="url(#clipPath492)"><path d="m834.83 502.51h7.7433v63.688h-7.7433z" fill="#008000"/></g><g clip-path="url(#clipPath502)"><path d="m889.04 488.23h7.7433v66.004h-7.7433z" fill="#008000"/></g><g clip-path="url(#clipPath512)"><path d="m943.24 468.93h7.7433v56.74h-7.7433z" fill="#008000"/></g><g clip-path="url(#clipPath522)"><path d="m997.44 479.74h7.7434v57.898h-7.7434z" fill="#008000"/></g><g clip-path="url(#clipPath532)"><path d="m148.26 64.8h7.7433v290.65h-7.7433z" fill="#fff"/></g><g clip-path="url(#clipPath542)"><path d="m202.46 64.8h7.7433v348.93h-7.7433z" fill="#fff"/></g><g clip-path="url(#clipPath552)"><path d="m256.67 64.8h7.7433v321.91h-7.7433z" fill="#fff"/></g><g clip-path="url(#clipPath562)"><path d="m310.87 64.8h7.7433v322.3h-7.7433z" fill="#fff"/></g><g clip-path="url(#clipPath572)"><path d="m365.07 64.8h7.7433v339.28h-7.7433z" fill="#fff"/></g><g clip-path="url(#clipPath582)"><path d="m419.28 64.8h7.7433v387.53h-7.7433z" fill="#fff"/></g><g clip-path="url(#clipPath592)"><path d="m473.48 64.8h7.7433v326.55h-7.7433z" fill="#fff"/></g><g clip-path="url(#clipPath602)"><path d="m527.68 64.8h7.7433v362.06h-7.7433z" fill="#fff"/></g><g clip-path="url(#clipPath612)"><path d="m581.88 64.8h7.7433v365.53h-7.7433z" fill="#fff"/></g><g clip-path="url(#clipPath622)"><path d="m636.09 64.8h7.7433v320.76h-7.7433z" fill="#fff"/></g><g clip-path="url(#clipPath632)"><path d="m690.29 64.8h7.7433v339.67h-7.7433z" fill="#fff"/></g><g clip-path="url(#clipPath642)"><path d="m744.49 64.8h7.7433v348.16h-7.7433z" fill="#fff"/></g><g clip-path="url(#clipPath652)"><path d="m798.7 64.8h7.7433v359.36h-7.7433z" fill="#fff"/></g><g clip-path="url(#clipPath662)"><path d="m852.9 64.8h7.7433v349.71h-7.7433z" fill="#fff"/></g><g clip-path="url(#clipPath672)"><path d="m907.1 64.8h7.7433v335.04h-7.7433z" fill="#fff"/></g><g clip-path="url(#clipPath682)"><path d="m961.31 64.8h7.7433v358.58h-7.74z" fill="#fff"/></g><g clip-path="url(#clipPath692)"><path d="m1015.5 64.8h7.7433v362.83h-7.7433z" fill="#fff"/></g><g clip-path="url(#clipPath702)"><path d="m148.26 355.45h7.7433v44.003h-7.7433z" fill="#286cf8"/></g><g clip-path="url(#clipPath712)"><path d="m202.46 413.73h7.7433v23.545h-7.7433z" fill="#286cf8"/></g><g clip-path="url(#clipPath722)"><path d="m256.67 386.71h7.7433v40.529h-7.7433z" fill="#286cf8"/></g><g clip-path="url(#clipPath732)"><path d="m310.87 387.1h7.7433v32.037h-7.7433z" fill="#286cf8"/></g><g clip-path="url(#clipPath742)"><path d="m365.07 404.08h7.7433v27.791h-7.7433z" fill="#286cf8"/></g><g clip-path="url(#clipPath752)"><path d="m419.28 452.33h7.7433v45.93h-7.7433z" fill="#286cf8"/></g><g clip-path="url(#clipPath762)"><path d="m473.48 391.35h7.7433v42.459h-7.7433z" fill="#286cf8"/></g><g clip-path="url(#clipPath772)"><path d="m527.68 426.86h7.7433v30.493h-7.7433z" fill="#286cf8"/></g><g clip-path="url(#clipPath782)"><path d="m581.88 430.33h7.7433v29.721h-7.7433z" fill="#286cf8"/></g><g clip-path="url(#clipPath792)"><path d="m636.09 385.56h7.7433v37.055h-7.7433z" fill="#286cf8"/></g><g clip-path="url(#clipPath802)"><path d="m690.29 404.47h7.7433v32.423h-7.7433z" fill="#286cf8"/></g><g clip-path="url(#clipPath812)"><path d="m744.49 412.96h7.7433v26.247h-7.7433z" fill="#286cf8"/></g><g clip-path="url(#clipPath822)"><path d="m798.7 424.16h7.7433v23.931h-7.7433z" fill="#286cf8"/></g><g clip-path="url(#clipPath832)"><path d="m852.9 414.51h7.7433v46.319h-7.7433z" fill="#286cf8"/></g><g clip-path="url(#clipPath842)"><path d="m907.1 399.84h7.7433v45.933h-7.7433z" fill="#286cf8"/></g><g clip-path="url(#clipPath852)"><path d="m961.31 423.38h7.7433v28.18h-7.74z" fill="#286cf8"/></g><g clip-path="url(#clipPath862)"><path d="m1015.5 427.63h7.7433v20.457h-7.7433z" fill="#286cf8"/></g><g clip-path="url(#clipPath872)"><path d="m148.26 399.45h7.7433v69.478h-7.7433z" fill="#286cf8"/></g><g clip-path="url(#clipPath882)"><path d="m202.46 437.28h7.7433v27.405h-7.7433z" fill="#286cf8"/></g><g clip-path="url(#clipPath892)"><path d="m256.67 427.24h7.7433v71.408h-7.7433z" fill="#286cf8"/></g><g clip-path="url(#clipPath902)"><path d="m310.87 419.14h7.7433v71.408h-7.7433z" fill="#286cf8"/></g><g clip-path="url(#clipPath912)"><path d="m365.07 431.87h7.7433v46.319h-7.7433z" fill="#286cf8"/></g><g clip-path="url(#clipPath922)"><path d="m419.28 498.26h7.7433v45.933h-7.7433z" fill="#286cf8"/></g><g clip-path="url(#clipPath932)"><path d="m473.48 433.8h7.7433v62.916h-7.7433z" fill="#286cf8"/></g><g clip-path="url(#clipPath942)"><path d="m527.68 457.35h7.7433v51.722h-7.7433z" fill="#286cf8"/></g><g clip-path="url(#clipPath952)"><path d="m581.88 460.05h7.7433v36.283h-7.7433z" fill="#286cf8"/></g><g clip-path="url(#clipPath962)"><path d="m636.09 422.61h7.7433v74.11h-7.7433z" fill="#286cf8"/></g><g clip-path="url(#clipPath972)"><path d="m690.29 436.89h7.7433v40.915h-7.7433z" fill="#286cf8"/></g><g clip-path="url(#clipPath982)"><path d="m744.49 439.21h7.7433v42.073h-7.7433z" fill="#286cf8"/></g><g clip-path="url(#clipPath992)"><path d="m798.7 448.09h7.7433v29.335h-7.7433z" fill="#286cf8"/></g><g clip-path="url(#clipPath1002)"><path d="m852.9 460.82h7.7433v45.933h-7.7433z" fill="#286cf8"/></g><g clip-path="url(#clipPath1012)"><path d="m907.1 445.77h7.7433v44.389h-7.7433z" fill="#286cf8"/></g><g clip-path="url(#clipPath1022)"><path d="m961.31 451.56h7.7433v37.441h-7.74z" fill="#286cf8"/></g><g clip-path="url(#clipPath1032)"><path d="m1015.5 448.09h7.7433v33.195h-7.7433z" fill="#286cf8"/></g><g><path stroke-linejoin="round" d="m139.22 64.8v-3.5" stroke="#000" stroke-miterlimit="10" stroke-width="0.8"/><text transform="matrix(1 0 0 -1 106.13 38.05)" font-size="26px" font-family="&apos;DejaVu Sans&apos;" fill="#000000"><tspan y="0" x="0 16.535999 33.071999 49.608002">1998</tspan></text>
<path stroke-linejoin="round" d="m247.63 64.8v-3.5" stroke="#000" stroke-miterlimit="10" stroke-width="0.8"/><text transform="matrix(1 0 0 -1 214.54 38.05)" font-size="26px" font-family="&apos;DejaVu Sans&apos;" fill="#000000"><tspan y="0" x="0 16.535999 33.071999 49.608002">2000</tspan></text>
<path stroke-linejoin="round" d="m356.04 64.8v-3.5" stroke="#000" stroke-miterlimit="10" stroke-width="0.8"/><text transform="matrix(1 0 0 -1 322.94 38.05)" font-size="26px" font-family="&apos;DejaVu Sans&apos;" fill="#000000"><tspan y="0" x="0 16.535999 33.071999 49.608002">2002</tspan></text>
<path stroke-linejoin="round" d="m464.44 64.8v-3.5" stroke="#000" stroke-miterlimit="10" stroke-width="0.8"/><text transform="matrix(1 0 0 -1 431.35 38.05)" font-size="26px" font-family="&apos;DejaVu Sans&apos;" fill="#000000"><tspan y="0" x="0 16.535999 33.071999 49.608002">2004</tspan></text>
<path stroke-linejoin="round" d="m572.85 64.8v-3.5" stroke="#000" stroke-miterlimit="10" stroke-width="0.8"/><text transform="matrix(1 0 0 -1 539.76 38.05)" font-size="26px" font-family="&apos;DejaVu Sans&apos;" fill="#000000"><tspan y="0" x="0 16.535999 33.071999 49.608002">2006</tspan></text>
<path stroke-linejoin="round" d="m681.26 64.8v-3.5" stroke="#000" stroke-miterlimit="10" stroke-width="0.8"/><text transform="matrix(1 0 0 -1 648.16 38.05)" font-size="26px" font-family="&apos;DejaVu Sans&apos;" fill="#000000"><tspan y="0" x="0 16.535999 33.071999 49.608002">2008</tspan></text>
<path stroke-linejoin="round" d="m789.66 64.8v-3.5" stroke="#000" stroke-miterlimit="10" stroke-width="0.8"/><text transform="matrix(1 0 0 -1 756.57 38.05)" font-size="26px" font-family="&apos;DejaVu Sans&apos;" fill="#000000"><tspan y="0" x="0 16.535999 33.071999 49.608002">2010</tspan></text>
<path stroke-linejoin="round" d="m898.07 64.8v-3.5" stroke="#000" stroke-miterlimit="10" stroke-width="0.8"/><text transform="matrix(1 0 0 -1 864.98 38.05)" font-size="26px" font-family="&apos;DejaVu Sans&apos;" fill="#000000"><tspan y="0" x="0 16.535999 33.071999 49.608002">2012</tspan></text>
<path stroke-linejoin="round" d="m1006.5 64.8v-3.5" stroke="#000" stroke-miterlimit="10" stroke-width="0.8"/><text transform="matrix(1 0 0 -1 973.38 38.05)" font-size="26px" font-family="&apos;DejaVu Sans&apos;" fill="#000000"><tspan y="0" x="0 16.535999 33.071999 49.608002">2014</tspan></text>
<text transform="matrix(1 0 0 -1 551.98 8.8938)" font-size="26px" font-family="&apos;DejaVu Sans&apos;" fill="#000000"><tspan y="0" x="0 7.6700001 23.608 40.091999">Jahr</tspan></text>
<path stroke-linejoin="round" d="m116.64 64.8h-3.5" stroke="#000" stroke-miterlimit="10" stroke-width="0.8"/><text transform="matrix(1 0 0 -1 93.093 54.925)" font-size="26px" font-family="&apos;DejaVu Sans&apos;" fill="#000000"><tspan y="0" x="0">0</tspan></text>
<path stroke-linejoin="round" d="m116.64 142h-3.5" stroke="#000" stroke-miterlimit="10" stroke-width="0.8"/><text transform="matrix(1 0 0 -1 59.999 132.12)" font-size="26px" font-family="&apos;DejaVu Sans&apos;" fill="#000000"><tspan y="0" x="0 16.535999 33.071999">200</tspan></text>
<path stroke-linejoin="round" d="m116.64 219.2h-3.5" stroke="#000" stroke-miterlimit="10" stroke-width="0.8"/><text transform="matrix(1 0 0 -1 59.999 209.32)" font-size="26px" font-family="&apos;DejaVu Sans&apos;" fill="#000000"><tspan y="0" x="0 16.535999 33.071999">400</tspan></text>
<path stroke-linejoin="round" d="m116.64 296.39h-3.5" stroke="#000" stroke-miterlimit="10" stroke-width="0.8"/><text transform="matrix(1 0 0 -1 59.999 286.52)" font-size="26px" font-family="&apos;DejaVu Sans&apos;" fill="#000000"><tspan y="0" x="0 16.535999 33.071999">600</tspan></text>
<path stroke-linejoin="round" d="m116.64 373.59h-3.5" stroke="#000" stroke-miterlimit="10" stroke-width="0.8"/><text transform="matrix(1 0 0 -1 59.999 363.72)" font-size="26px" font-family="&apos;DejaVu Sans&apos;" fill="#000000"><tspan y="0" x="0 16.535999 33.071999">800</tspan></text>
<path stroke-linejoin="round" d="m116.64 450.79h-3.5" stroke="#000" stroke-miterlimit="10" stroke-width="0.8"/><text transform="matrix(1 0 0 -1 43.452 440.91)" font-size="26px" font-family="&apos;DejaVu Sans&apos;" fill="#000000"><tspan y="0" x="0 16.535999 33.071999 49.608002">1000</tspan></text>
<path stroke-linejoin="round" d="m116.64 527.99h-3.5" stroke="#000" stroke-miterlimit="10" stroke-width="0.8"/><text transform="matrix(1 0 0 -1 43.452 518.11)" font-size="26px" font-family="&apos;DejaVu Sans&apos;" fill="#000000"><tspan y="0" x="0 16.535999 33.071999 49.608002">1200</tspan></text>
<path stroke-linejoin="round" d="m116.64 605.18h-3.5" stroke="#000" stroke-miterlimit="10" stroke-width="0.8"/><text transform="matrix(1 0 0 -1 43.452 595.31)" font-size="26px" font-family="&apos;DejaVu Sans&apos;" fill="#000000"><tspan y="0" x="0 16.535999 33.071999 49.608002">1400</tspan></text>
<g transform="rotate(90 -30.984 64.436)" font-family="&apos;DejaVu Sans&apos;" fill="#000000"><text transform="matrix(1 0 0 -1 0 .53906)" font-size="26px"><tspan y="0" x="0 20.147461 27.371094 43.27832 59.782227 75.714844 82.938477 96.484375 106.67871 117.36816 133.30078 149.7793 157.00293 173.48145 189.95996 206.46387 214.72852 224.87207 241.35059 257.25781 267.94727 275.1709 288.81836 304.72559 321.2041 331.39844 347.33105 354.55469 364.69824 372.96289 380.18652 396.66504 404.92969 419.98633 445.69434 462.17285 470.93262">Globalstrahlung (horizontal) in kWh/m</tspan></text>
<text transform="matrix(1 0 0 -1 496.51 10.492)" font-size="18.2px"><tspan y="0" x="0">2</tspan></text>
</g></g><g clip-path="url(#clipPath1160)"><g transform="translate(133.44 449.24)"><g clip-path="url(#clipPath1170)"><path d="m0-7.0711 7.0711 7.0711-7.0711 7.0711-7.0711-7.0711z" stroke="#004200" stroke-miterlimit="10" fill="#004200"/></g><g transform="translate(54.203 35.511)"><g clip-path="url(#clipPath1182)"><path d="m0-7.0711 7.0711 7.0711-7.0711 7.0711-7.0711-7.0711z" stroke="#004200" stroke-miterlimit="10" fill="#004200"/></g><g transform="translate(54.203 -15.44)"><g clip-path="url(#clipPath1194)"><path d="m0-7.0711 7.0711 7.0711-7.0711 7.0711-7.0711-7.0711z" stroke="#004200" stroke-miterlimit="10" fill="#004200"/></g><g transform="translate(54.203 -2.3159)"><g clip-path="url(#clipPath1206)"><path d="m0-7.0711 7.0711 7.0711-7.0711 7.0711-7.0711-7.0711z" stroke="#004200" stroke-miterlimit="10" fill="#004200"/></g><g transform="translate(54.203 -3.4739)"><g clip-path="url(#clipPath1218)"><path d="m0-7.0711 7.0711 7.0711-7.0711 7.0711-7.0711-7.0711z" stroke="#004200" stroke-miterlimit="10" fill="#004200"/></g><g transform="translate(54.203 63.302)"><g clip-path="url(#clipPath1230)"><path d="m0-7.0711 7.0711 7.0711-7.0711 7.0711-7.0711-7.0711z" stroke="#004200" stroke-miterlimit="10" fill="#004200"/></g><g transform="translate(54.203 -51.336)"><g clip-path="url(#clipPath1242)"><path d="m0-7.0711 7.0711 7.0711-7.0711 7.0711-7.0711-7.0711z" stroke="#004200" stroke-miterlimit="10" fill="#004200"/></g><g transform="translate(54.203 14.668)"><g clip-path="url(#clipPath1254)"><path d="m0-7.0711 7.0711 7.0711-7.0711 7.0711-7.0711-7.0711z" stroke="#004200" stroke-miterlimit="10" fill="#004200"/></g><g transform="translate(54.203 3.0879)"><g clip-path="url(#clipPath1266)"><path d="m0-7.0711 7.0711 7.0711-7.0711 7.0711-7.0711-7.0711z" stroke="#004200" stroke-miterlimit="10" fill="#004200"/></g><g transform="translate(54.203 -8.8777)"><g clip-path="url(#clipPath1278)"><path d="m0-7.0711 7.0711 7.0711-7.0711 7.0711-7.0711-7.0711z" stroke="#004200" stroke-miterlimit="10" fill="#004200"/></g><g transform="translate(54.203 -1.544)"><g clip-path="url(#clipPath1290)"><path d="m0-7.0711 7.0711 7.0711-7.0711 7.0711-7.0711-7.0711z" stroke="#004200" stroke-miterlimit="10" fill="#004200"/></g><g transform="translate(54.203 7.3338)"><g clip-path="url(#clipPath1302)"><path d="m0-7.0711 7.0711 7.0711-7.0711 7.0711-7.0711-7.0711z" stroke="#004200" stroke-miterlimit="10" fill="#004200"/></g><g transform="translate(54.203 -13.896)"><g clip-path="url(#clipPath1314)"><path d="m0-7.0711 7.0711 7.0711-7.0711 7.0711-7.0711-7.0711z" stroke="#004200" stroke-miterlimit="10" fill="#004200"/></g><g transform="translate(54.203 26.247)"><g clip-path="url(#clipPath1326)"><path d="m0-7.0711 7.0711 7.0711-7.0711 7.0711-7.0711-7.0711z" stroke="#004200" stroke-miterlimit="10" fill="#004200"/></g><g transform="translate(54.203 -14.282)"><g clip-path="url(#clipPath1338)"><path d="m0-7.0711 7.0711 7.0711-7.0711 7.0711-7.0711-7.0711z" stroke="#004200" stroke-miterlimit="10" fill="#004200"/></g><g transform="translate(54.203 -19.299)"><g clip-path="url(#clipPath1350)"><path d="m0-7.0711 7.0711 7.0711-7.0711 7.0711-7.0711-7.0711z" stroke="#004200" stroke-miterlimit="10" fill="#004200"/></g><g transform="translate(54.203 10.808)"><g clip-path="url(#clipPath1362)"><path d="m0-7.0711 7.0711 7.0711-7.0711 7.0711-7.0711-7.0711z" stroke="#004200" stroke-miterlimit="10" fill="#004200"/></g></g></g></g></g></g></g></g></g></g></g></g></g></g></g></g></g></g></g><g clip-path="url(#clipPath1372)"><g transform="translate(151.87 399.45)"><g clip-path="url(#clipPath1382)"><path d="m0-7.0711 7.0711 7.0711-7.0711 7.0711-7.0711-7.0711z" stroke="#133374" stroke-miterlimit="10" fill="#133374"/></g><g transform="translate(54.203 37.827)"><g clip-path="url(#clipPath1394)"><path d="m0-7.0711 7.0711 7.0711-7.0711 7.0711-7.0711-7.0711z" stroke="#133374" stroke-miterlimit="10" fill="#133374"/></g><g transform="translate(54.203 -10.036)"><g clip-path="url(#clipPath1406)"><path d="m0-7.0711 7.0711 7.0711-7.0711 7.0711-7.0711-7.0711z" stroke="#133374" stroke-miterlimit="10" fill="#133374"/></g><g transform="translate(54.203 -8.1058)"><g clip-path="url(#clipPath1418)"><path d="m0-7.0711 7.0711 7.0711-7.0711 7.0711-7.0711-7.0711z" stroke="#133374" stroke-miterlimit="10" fill="#133374"/></g><g transform="translate(54.203 12.738)"><g clip-path="url(#clipPath1430)"><path d="m0-7.0711 7.0711 7.0711-7.0711 7.0711-7.0711-7.0711z" stroke="#133374" stroke-miterlimit="10" fill="#133374"/></g><g transform="translate(54.203 66.39)"><g clip-path="url(#clipPath1442)"><path d="m0-7.0711 7.0711 7.0711-7.0711 7.0711-7.0711-7.0711z" stroke="#133374" stroke-miterlimit="10" fill="#133374"/></g><g transform="translate(54.203 -64.46)"><g clip-path="url(#clipPath1454)"><path d="m0-7.0711 7.0711 7.0711-7.0711 7.0711-7.0711-7.0711z" stroke="#133374" stroke-miterlimit="10" fill="#133374"/></g><g transform="translate(54.203 23.545)"><g clip-path="url(#clipPath1466)"><path d="m0-7.0711 7.0711 7.0711-7.0711 7.0711-7.0711-7.0711z" stroke="#133374" stroke-miterlimit="10" fill="#133374"/></g><g transform="translate(54.203 2.7019)"><g clip-path="url(#clipPath1478)"><path d="m0-7.0711 7.0711 7.0711-7.0711 7.0711-7.0711-7.0711z" stroke="#133374" stroke-miterlimit="10" fill="#133374"/></g><g transform="translate(54.203 -37.441)"><g clip-path="url(#clipPath1490)"><path d="m0-7.0711 7.0711 7.0711-7.0711 7.0711-7.0711-7.0711z" stroke="#133374" stroke-miterlimit="10" fill="#133374"/></g><g transform="translate(54.203 14.282)"><g clip-path="url(#clipPath1502)"><path d="m0-7.0711 7.0711 7.0711-7.0711 7.0711-7.0711-7.0711z" stroke="#133374" stroke-miterlimit="10" fill="#133374"/></g><g transform="translate(54.203 2.3159)"><g clip-path="url(#clipPath1514)"><path d="m0-7.0711 7.0711 7.0711-7.0711 7.0711-7.0711-7.0711z" stroke="#133374" stroke-miterlimit="10" fill="#133374"/></g><g transform="translate(54.203 8.8777)"><g clip-path="url(#clipPath1526)"><path d="m0-7.0711 7.0711 7.0711-7.0711 7.0711-7.0711-7.0711z" stroke="#133374" stroke-miterlimit="10" fill="#133374"/></g><g transform="translate(54.203 12.738)"><g clip-path="url(#clipPath1538)"><path d="m0-7.0711 7.0711 7.0711-7.0711 7.0711-7.0711-7.0711z" stroke="#133374" stroke-miterlimit="10" fill="#133374"/></g><g transform="translate(54.203 -15.054)"><g clip-path="url(#clipPath1550)"><path d="m0-7.0711 7.0711 7.0711-7.0711 7.0711-7.0711-7.0711z" stroke="#133374" stroke-miterlimit="10" fill="#133374"/></g><g transform="translate(54.203 5.7898)"><g clip-path="url(#clipPath1562)"><path d="m0-7.0711 7.0711 7.0711-7.0711 7.0711-7.0711-7.0711z" stroke="#133374" stroke-miterlimit="10" fill="#133374"/></g><g transform="translate(54.203 -3.4739)"><g clip-path="url(#clipPath1574)"><path d="m0-7.0711 7.0711 7.0711-7.0711 7.0711-7.0711-7.0711z" stroke="#133374" stroke-miterlimit="10" fill="#133374"/></g></g></g></g></g></g></g></g></g></g></g></g></g></g></g></g></g></g></g><g stroke="#000" stroke-linecap="square" stroke-miterlimit="10" stroke-width="0.8" fill="none"><path d="m116.64 64.8v570.24"/><path d="m1038.1 64.8v570.24"/><path d="m116.64 64.8h921.46"/><path d="m116.64 635.04h921.46"/></g><path d="m1056.3 307.86h225.18c3.4666 0 5.2 1.7333 5.2 5.2v73.712c0 3.4667-1.7334 5.2-5.2 5.2h-225.2c-3.4667 0-5.2-1.7333-5.2-5.2v-73.712c0-3.4667 1.7333-5.2 5.2-5.2z" stroke-opacity=".8" fill-opacity=".8" stroke="#ccc" stroke-miterlimit="10" fill="#fff"/><g><path d="m1061.5 361.83h52v18.2h-52z" fill="#008000"/><text transform="matrix(1 0 0 -1 1134.3 361.83)" font-size="26px" font-family="&apos;DejaVu Sans&apos;" fill="#000000"><tspan y="0" x="0 20.02 45.734001">DWD</tspan></text>
<path d="m1061.5 323.67h52v18.2h-52z" fill="#286cf8"/><text transform="matrix(1 0 0 -1 1134.3 323.67)" font-size="26px" font-family="&apos;DejaVu Sans&apos;" fill="#000000"><tspan y="0" x="0 14.3 30.212 46.150002 59.695999 69.888 89.907997 105.846 116.038 125.424">coastDat-2</tspan></text>
</g><path d="m1056.3 307.86h225.18c3.4666 0 5.2 1.7333 5.2 5.2v73.712c0 3.4667-1.7334 5.2-5.2 5.2h-225.2c-3.4667 0-5.2-1.7333-5.2-5.2v-73.712c0-3.4667 1.7333-5.2 5.2-5.2z" stroke-opacity=".8" fill-opacity=".8" stroke="#ccc" stroke-miterlimit="10" fill="#fff"/><g><path d="m1061.5 361.83h52v18.2h-52z" fill="#008000"/><text transform="matrix(1 0 0 -1 1134.3 361.83)" font-size="26px" font-family="&apos;DejaVu Sans&apos;" fill="#000000"><tspan y="0" x="0 20.02 45.734001">DWD</tspan></text>
<path d="m1061.5 323.67h52v18.2h-52z" fill="#286cf8"/><text transform="matrix(1 0 0 -1 1134.3 323.67)" font-size="26px" font-family="&apos;DejaVu Sans&apos;" fill="#000000"><tspan y="0" x="0 14.3 30.212 46.150002 59.695999 69.888 89.907997 105.846 116.038 125.424">coastDat-2</tspan></text>
</g></g></svg>
