<?xml version="1.0" encoding="UTF-8"?><svg xmlns="http://www.w3.org/2000/svg" xmlns:xlink="http://www.w3.org/1999/xlink" fill-opacity="1" color-rendering="auto" color-interpolation="auto" text-rendering="auto" stroke="black" stroke-linecap="square" width="922" stroke-miterlimit="10" shape-rendering="auto" stroke-opacity="1" fill="black" stroke-dasharray="none" font-weight="normal" stroke-width="1" height="247" font-family="'Dialog'" font-style="normal" stroke-linejoin="miter" font-size="12px" stroke-dashoffset="0" image-rendering="auto">
  <!--Generated by ySVG 2.5-->
  <defs id="genericDefs"/>
  <g>
    <defs id="defs1">
      <clipPath clipPathUnits="userSpaceOnUse" id="clipPath1">
        <path d="M0 0 L922 0 L922 247 L0 247 L0 0 Z"/>
      </clipPath>
      <clipPath clipPathUnits="userSpaceOnUse" id="clipPath2">
        <path d="M-316 146 L606 146 L606 393 L-316 393 L-316 146 Z"/>
      </clipPath>
    </defs>
    <g fill="white" text-rendering="geometricPrecision" shape-rendering="geometricPrecision" transform="translate(316,-146)" stroke="white">
      <rect x="-316" width="922" height="247" y="146" clip-path="url(#clipPath2)" stroke="none"/>
    </g>
    <g fill="rgb(245,245,245)" text-rendering="geometricPrecision" shape-rendering="geometricPrecision" transform="matrix(1,0,0,1,316,-146)" stroke="rgb(245,245,245)">
      <rect x="-301" y="161.7891" clip-path="url(#clipPath2)" width="421" rx="4" ry="4" height="215.8203" stroke="none"/>
      <rect x="-301" y="161.7891" clip-path="url(#clipPath2)" fill="rgb(235,235,235)" width="421" height="21.4609" stroke="none"/>
    </g>
    <g font-size="15px" stroke-linecap="butt" transform="matrix(1,0,0,1,316,-146)" text-rendering="geometricPrecision" font-family="sans-serif" shape-rendering="geometricPrecision" stroke-miterlimit="1.45">
      <text x="-15.938" xml:space="preserve" y="177.7124" clip-path="url(#clipPath2)" stroke="none">Erdgas Kraftwerk </text>
      <rect x="-301" y="161.7891" clip-path="url(#clipPath2)" fill="none" width="421" stroke-dasharray="6,2" rx="4" ry="4" height="215.8203"/>
      <text x="-127.4902" xml:space="preserve" font-size="12px" y="351.7637" clip-path="url(#clipPath2)" stroke="none">Transformer</text>
      <text x="37.8037" xml:space="preserve" font-size="12px" y="351.7637" clip-path="url(#clipPath2)" stroke="none">Flow</text>
      <text x="-246.1963" xml:space="preserve" font-size="12px" y="351.7637" clip-path="url(#clipPath2)" stroke="none">Flow</text>
    </g>
    <g fill="rgb(204,204,204)" text-rendering="geometricPrecision" shape-rendering="geometricPrecision" transform="matrix(1,0,0,1,316,-146)" stroke="rgb(204,204,204)">
      <path d="M0.5 270.8203 L92.3 270.8203 L102.5 285.8203 L92.3 300.8203 L0.5 300.8203 L10.7 285.8203 Z" fill-rule="evenodd" clip-path="url(#clipPath2)" stroke="none"/>
    </g>
    <g text-rendering="geometricPrecision" stroke-miterlimit="1.45" shape-rendering="geometricPrecision" transform="matrix(1,0,0,1,316,-146)" stroke-linecap="butt">
      <path fill="none" d="M0.5 270.8203 L92.3 270.8203 L102.5 285.8203 L92.3 300.8203 L0.5 300.8203 L10.7 285.8203 Z" fill-rule="evenodd" clip-path="url(#clipPath2)"/>
      <text x="33.3564" xml:space="preserve" y="289.9746" clip-path="url(#clipPath2)" font-family="sans-serif" stroke="none">Strom</text>
    </g>
    <g fill="rgb(204,204,204)" text-rendering="geometricPrecision" shape-rendering="geometricPrecision" transform="matrix(1,0,0,1,316,-146)" stroke="rgb(204,204,204)">
      <path d="M-283.5 270.8203 L-191.7 270.8203 L-181.5 285.8203 L-191.7 300.8203 L-283.5 300.8203 L-273.3 285.8203 Z" fill-rule="evenodd" clip-path="url(#clipPath2)" stroke="none"/>
    </g>
    <g text-rendering="geometricPrecision" stroke-miterlimit="1.45" shape-rendering="geometricPrecision" transform="matrix(1,0,0,1,316,-146)" stroke-linecap="butt">
      <path fill="none" d="M-283.5 270.8203 L-191.7 270.8203 L-181.5 285.8203 L-191.7 300.8203 L-283.5 300.8203 L-273.3 285.8203 Z" fill-rule="evenodd" clip-path="url(#clipPath2)"/>
      <text x="-253.1777" xml:space="preserve" y="289.9746" clip-path="url(#clipPath2)" font-family="sans-serif" stroke="none">Erdgas</text>
    </g>
    <g fill="rgb(204,204,204)" text-rendering="geometricPrecision" shape-rendering="geometricPrecision" transform="matrix(1,0,0,1,316,-146)" stroke="rgb(204,204,204)">
      <rect x="-158.5" y="269.8203" clip-path="url(#clipPath2)" width="136" rx="4" ry="4" height="32" stroke="none"/>
    </g>
    <g text-rendering="geometricPrecision" stroke-miterlimit="1.45" shape-rendering="geometricPrecision" transform="matrix(1,0,0,1,316,-146)" stroke-linecap="butt">
      <rect x="-158.5" y="269.8203" clip-path="url(#clipPath2)" fill="none" width="136" rx="4" ry="4" height="32"/>
      <text x="-120.8018" xml:space="preserve" y="289.9746" clip-path="url(#clipPath2)" font-family="sans-serif" stroke="none">Wandlung</text>
      <text x="-280.8604" xml:space="preserve" y="218.4199" clip-path="url(#clipPath2)" font-family="sans-serif" stroke="none">ohne Parameter</text>
      <text x="-143.8408" xml:space="preserve" y="211.4355" clip-path="url(#clipPath2)" font-family="sans-serif" stroke="none">Wirkungsgrad auf</text>
      <text x="-146.3691" xml:space="preserve" y="225.4043" clip-path="url(#clipPath2)" font-family="sans-serif" stroke="none">austretenden Flow</text>
      <text x="22.5488" xml:space="preserve" y="211.4355" clip-path="url(#clipPath2)" font-family="sans-serif" stroke="none">Maximale</text>
      <text x="4.748" xml:space="preserve" y="225.4043" clip-path="url(#clipPath2)" font-family="sans-serif" stroke="none">elektr. Leistung</text>
    </g>
    <g fill="rgb(245,245,245)" text-rendering="geometricPrecision" shape-rendering="geometricPrecision" transform="matrix(1,0,0,1,316,-146)" stroke="rgb(245,245,245)">
      <rect x="168.5" y="161.7891" clip-path="url(#clipPath2)" width="422" rx="4" ry="4" height="215.8203" stroke="none"/>
      <rect x="168.5" y="161.7891" clip-path="url(#clipPath2)" fill="rgb(235,235,235)" width="422" height="21.4609" stroke="none"/>
    </g>
    <g font-size="15px" stroke-linecap="butt" transform="matrix(1,0,0,1,316,-146)" text-rendering="geometricPrecision" font-family="sans-serif" shape-rendering="geometricPrecision" stroke-miterlimit="1.45">
      <text x="423.1631" xml:space="preserve" y="177.7124" clip-path="url(#clipPath2)" stroke="none">Erdgas Heizkraftwerk </text>
      <rect x="168.5" y="161.7891" clip-path="url(#clipPath2)" fill="none" width="422" stroke-dasharray="6,2" rx="4" ry="4" height="215.8203"/>
    </g>
    <g fill="rgb(204,204,204)" text-rendering="geometricPrecision" shape-rendering="geometricPrecision" transform="matrix(1,0,0,1,316,-146)" stroke="rgb(204,204,204)">
      <rect x="314.5" y="269.8203" clip-path="url(#clipPath2)" width="136" rx="4" ry="4" height="32" stroke="none"/>
    </g>
    <g text-rendering="geometricPrecision" stroke-miterlimit="1.45" shape-rendering="geometricPrecision" transform="matrix(1,0,0,1,316,-146)" stroke-linecap="butt">
      <rect x="314.5" y="269.8203" clip-path="url(#clipPath2)" fill="none" width="136" rx="4" ry="4" height="32"/>
      <text x="352.1982" xml:space="preserve" y="289.9746" clip-path="url(#clipPath2)" font-family="sans-serif" stroke="none">Wandlung</text>
    </g>
    <g fill="rgb(204,204,204)" text-rendering="geometricPrecision" shape-rendering="geometricPrecision" transform="matrix(1,0,0,1,316,-146)" stroke="rgb(204,204,204)">
      <path d="M189.5 270.8203 L281.3 270.8203 L291.5 285.8203 L281.3 300.8203 L189.5 300.8203 L199.7 285.8203 Z" fill-rule="evenodd" clip-path="url(#clipPath2)" stroke="none"/>
    </g>
    <g text-rendering="geometricPrecision" stroke-miterlimit="1.45" shape-rendering="geometricPrecision" transform="matrix(1,0,0,1,316,-146)" stroke-linecap="butt">
      <path fill="none" d="M189.5 270.8203 L281.3 270.8203 L291.5 285.8203 L281.3 300.8203 L189.5 300.8203 L199.7 285.8203 Z" fill-rule="evenodd" clip-path="url(#clipPath2)"/>
      <text x="219.8223" xml:space="preserve" y="289.9746" clip-path="url(#clipPath2)" font-family="sans-serif" stroke="none">Erdgas</text>
    </g>
    <g fill="rgb(204,204,204)" text-rendering="geometricPrecision" shape-rendering="geometricPrecision" transform="matrix(1,0,0,1,316,-146)" stroke="rgb(204,204,204)">
      <path d="M473.5 247.5312 L565.3 247.5312 L575.5 262.5312 L565.3 277.5312 L473.5 277.5312 L483.7 262.5312 Z" fill-rule="evenodd" clip-path="url(#clipPath2)" stroke="none"/>
    </g>
    <g text-rendering="geometricPrecision" stroke-miterlimit="1.45" shape-rendering="geometricPrecision" transform="matrix(1,0,0,1,316,-146)" stroke-linecap="butt">
      <path fill="none" d="M473.5 247.5312 L565.3 247.5312 L575.5 262.5312 L565.3 277.5312 L473.5 277.5312 L483.7 262.5312 Z" fill-rule="evenodd" clip-path="url(#clipPath2)"/>
      <text x="506.3564" xml:space="preserve" y="266.6855" clip-path="url(#clipPath2)" font-family="sans-serif" stroke="none">Strom</text>
      <text x="226.8037" xml:space="preserve" y="351.7637" clip-path="url(#clipPath2)" font-family="sans-serif" stroke="none">Flow</text>
      <text x="507.6777" xml:space="preserve" y="351.7637" clip-path="url(#clipPath2)" font-family="sans-serif" stroke="none">Flows</text>
      <text x="345.5098" xml:space="preserve" y="351.7637" clip-path="url(#clipPath2)" font-family="sans-serif" stroke="none">Transformer</text>
    </g>
    <g fill="rgb(204,204,204)" text-rendering="geometricPrecision" shape-rendering="geometricPrecision" transform="matrix(1,0,0,1,316,-146)" stroke="rgb(204,204,204)">
      <path d="M473.5 290.0703 L565.3 290.0703 L575.5 305.0703 L565.3 320.0703 L473.5 320.0703 L483.7 305.0703 Z" fill-rule="evenodd" clip-path="url(#clipPath2)" stroke="none"/>
    </g>
    <g text-rendering="geometricPrecision" stroke-miterlimit="1.45" shape-rendering="geometricPrecision" transform="matrix(1,0,0,1,316,-146)" stroke-linecap="butt">
      <path fill="none" d="M473.5 290.0703 L565.3 290.0703 L575.5 305.0703 L565.3 320.0703 L473.5 320.0703 L483.7 305.0703 Z" fill-rule="evenodd" clip-path="url(#clipPath2)"/>
      <text x="502.8877" xml:space="preserve" y="309.2246" clip-path="url(#clipPath2)" font-family="sans-serif" stroke="none">Wärme</text>
      <text x="206.1416" xml:space="preserve" y="211.4199" clip-path="url(#clipPath2)" font-family="sans-serif" stroke="none">Maximale </text>
      <text x="192.4043" xml:space="preserve" y="225.3887" clip-path="url(#clipPath2)" font-family="sans-serif" stroke="none">Erdgasleistung</text>
      <text x="329.8926" xml:space="preserve" y="211.4199" clip-path="url(#clipPath2)" font-family="sans-serif" stroke="none">Wirkungsgrad je</text>
      <text x="323.1309" xml:space="preserve" y="225.3887" clip-path="url(#clipPath2)" font-family="sans-serif" stroke="none">austretenden Flow</text>
      <text x="472.6396" xml:space="preserve" y="218.4043" clip-path="url(#clipPath2)" font-family="sans-serif" stroke="none">ohne Parameter</text>
    </g>
  </g>
</svg>
